<svg xmlns="http://www.w3.org/2000/svg" xmlns:xlink="http://www.w3.org/1999/xlink" width="238.873" height="185.744" viewBox="0 0 238.873 185.744">
  <defs>
    <clipPath id="clip-path">
      <rect width="238.873" height="185.744" fill="none"/>
    </clipPath>
  </defs>
  <g id="Repeat_Grid_9" data-name="Repeat Grid 9" clip-path="url(#clip-path)">
    <g transform="translate(-37.563 -2443.628)">
      <g id="Group_57" data-name="Group 57" transform="translate(-244.116 2270.008)">
        <g id="Group_39" data-name="Group 39">
          <path id="Rectangle_8" data-name="Rectangle 8" d="M0,0H179.683a0,0,0,0,1,0,0V109.927a17.452,17.452,0,0,1-17.452,17.452H0a0,0,0,0,1,0,0V0A0,0,0,0,1,0,0Z" transform="translate(298.093 196.74)" fill="#e0f9ff"/>
          <path id="Path_81" data-name="Path 81" d="M477.771,304.2v5.7a26.908,26.908,0,0,1-26.915,26.915H317.25a35.565,35.565,0,0,1-35.571-35.559V173.62H444.517V303.642a17.392,17.392,0,0,0,1.443,6.954,16.525,16.525,0,0,0,31.811-6.4Z" fill="#fff"/>
        </g>
        <g id="Group_54" data-name="Group 54">
          <g id="Group_50" data-name="Group 50">
            <text id="الاخبار" transform="translate(331.273 216.924)" fill="#0b334c" font-size="23.768" font-family="Cairo-Bold, Cairo" font-weight="700"><tspan x="0" y="0">الاخبار</tspan></text>
            <g id="Group_47" data-name="Group 47">
              <g id="Group_46" data-name="Group 46">
                <g id="Group_42" data-name="Group 42">
                  <g id="Group_40" data-name="Group 40">
                    <rect id="Rectangle_9" data-name="Rectangle 9" width="15.976" height="1.313" transform="translate(405.875 205.688)" fill="#00a2dd"/>
                  </g>
                  <g id="Group_41" data-name="Group 41">
                    <rect id="Rectangle_10" data-name="Rectangle 10" width="23.418" height="1.313" transform="translate(405.875 209.847)" fill="#00a2dd"/>
                  </g>
                </g>
                <g id="Group_45" data-name="Group 45">
                  <g id="Group_43" data-name="Group 43">
                    <rect id="Rectangle_11" data-name="Rectangle 11" width="15.977" height="1.313" transform="translate(301.695 205.688)" fill="#00a2dd"/>
                  </g>
                  <g id="Group_44" data-name="Group 44">
                    <rect id="Rectangle_12" data-name="Rectangle 12" width="23.418" height="1.313" transform="translate(294.254 209.847)" fill="#00a2dd"/>
                  </g>
                </g>
              </g>
            </g>
            <g id="Group_49" data-name="Group 49">
              <g id="Group_48" data-name="Group 48">
                <rect id="Rectangle_13" data-name="Rectangle 13" width="132.96" height="1.313" transform="translate(295.293 219.258)" fill="#00a2dd"/>
              </g>
            </g>
          </g>
          <g id="Group_53" data-name="Group 53">
            <rect id="Rectangle_14" data-name="Rectangle 14" width="50.995" height="64.127" transform="translate(295.092 240.075)" fill="#fcb13a"/>
            <g id="Group_51" data-name="Group 51">
              <rect id="Rectangle_15" data-name="Rectangle 15" width="37.645" height="3.721" transform="translate(350.246 240.075)" fill="#8ee4fd"/>
              <rect id="Rectangle_16" data-name="Rectangle 16" width="37.645" height="3.721" transform="translate(350.246 248.61)" fill="#8ee4fd"/>
              <rect id="Rectangle_17" data-name="Rectangle 17" width="37.645" height="3.721" transform="translate(350.246 257.146)" fill="#8ee4fd"/>
              <rect id="Rectangle_18" data-name="Rectangle 18" width="37.645" height="3.721" transform="translate(350.246 265.682)" fill="#8ee4fd"/>
              <rect id="Rectangle_19" data-name="Rectangle 19" width="37.645" height="3.721" transform="translate(350.246 274.217)" fill="#8ee4fd"/>
              <rect id="Rectangle_20" data-name="Rectangle 20" width="37.645" height="3.721" transform="translate(350.246 282.753)" fill="#8ee4fd"/>
              <rect id="Rectangle_21" data-name="Rectangle 21" width="37.645" height="3.721" transform="translate(350.246 291.289)" fill="#8ee4fd"/>
              <rect id="Rectangle_22" data-name="Rectangle 22" width="37.645" height="3.721" transform="translate(350.246 299.824)" fill="#8ee4fd"/>
            </g>
            <g id="Group_52" data-name="Group 52">
              <rect id="Rectangle_23" data-name="Rectangle 23" width="34.581" height="3.721" transform="translate(393.873 265.682)" fill="#8ee4fd"/>
              <rect id="Rectangle_24" data-name="Rectangle 24" width="34.581" height="3.721" transform="translate(393.873 274.217)" fill="#8ee4fd"/>
              <rect id="Rectangle_25" data-name="Rectangle 25" width="34.581" height="3.721" transform="translate(393.873 282.753)" fill="#8ee4fd"/>
              <rect id="Rectangle_26" data-name="Rectangle 26" width="34.581" height="3.721" transform="translate(393.873 291.289)" fill="#8ee4fd"/>
              <rect id="Rectangle_27" data-name="Rectangle 27" width="34.581" height="3.721" transform="translate(393.873 299.824)" fill="#8ee4fd"/>
            </g>
            <rect id="Rectangle_28" data-name="Rectangle 28" width="34.143" height="14.007" transform="translate(394.092 240.075)" fill="#00a2dd"/>
          </g>
        </g>
        <g id="Group_56" data-name="Group 56">
          <path id="Path_82" data-name="Path 82" d="M467.908,300.355a10.746,10.746,0,0,1-8.42,10.241H445.96a17.392,17.392,0,0,1-1.443-6.954V182.194h7.226l-.391,5.321h16.556S468.5,291.486,467.908,300.355Z" fill="#d4f7ff"/>
          <g id="Group_55" data-name="Group 55">
            <path id="Path_83" data-name="Path 83" d="M459.482,310.8a9.324,9.324,0,0,1-9.312-9.313V182.194h2.365v119.29a6.947,6.947,0,1,0,13.895,0V187.515H468.8V301.484A9.324,9.324,0,0,1,459.482,310.8Z" fill="#fff"/>
          </g>
        </g>
      </g>
      <g id="Group_65" data-name="Group 65" transform="translate(204.164 2574.424)">
        <path id="Rectangle_29" data-name="Rectangle 29" d="M0,0H57.829a0,0,0,0,1,0,0V18.152A28.915,28.915,0,0,1,28.915,47.066h0A28.915,28.915,0,0,1,0,18.152V0A0,0,0,0,1,0,0Z" transform="translate(14.444 7.881)" fill="#bd8200"/>
        <g id="Group_64" data-name="Group 64" transform="translate(14.448)">
          <path id="Path_157" data-name="Path 157" d="M28.911,0C44.877,0,57.821,3.611,57.821,8.066s-12.944,8.066-28.911,8.066S0,12.521,0,8.066,12.944,0,28.911,0Z" fill="#f0a500"/>
          <g id="Group_63" data-name="Group 63" transform="translate(2.111 1.147)">
            <path id="Path_87" data-name="Path 87" d="M477.292,371.423c0,1.6,2.114,3.081,5.651,4.253,4.909,1.616,12.561,2.664,21.152,2.664s16.243-1.048,21.144-2.664c3.538-1.172,5.652-2.655,5.652-4.253,0-3.819-11.992-6.918-26.8-6.918S477.292,367.6,477.292,371.423Z" transform="translate(-477.292 -364.505)" fill="#bd8200"/>
            <path id="Path_88" data-name="Path 88" d="M485.249,378.032c4.909,1.616,12.561,2.664,21.152,2.664s16.243-1.048,21.144-2.664c-3.636-2.4-11.734-4.067-21.144-4.067S488.886,375.634,485.249,378.032Z" transform="translate(-479.598 -366.861)" fill="#0b334c"/>
          </g>
        </g>
        <path id="Path_89" data-name="Path 89" d="M569.059,380.916a19.7,19.7,0,0,0-2.533-1.436,21.433,21.433,0,0,0-2.661-1.065,14.969,14.969,0,0,0-6.04-.745c-.158.018-.227.01-.457.051a6.712,6.712,0,0,0-.812.222,3.44,3.44,0,0,0-.693.336,3.958,3.958,0,0,0-.6.4,6.055,6.055,0,0,0-.882.865,6.193,6.193,0,0,0-.631.869,11.519,11.519,0,0,0-1.358,3.312,19.565,19.565,0,0,0,4.518,17.462,14.217,14.217,0,0,0,5.094,3.29,22.526,22.526,0,0,0,5.685,1.28v-4.934a8.947,8.947,0,0,1-7.937-2.675c-1.955-2.133-2.716-5.336-2.667-8.4a17.648,17.648,0,0,1,.639-4.416,7.432,7.432,0,0,1,.689-1.62.858.858,0,0,1,.145-.2c.047-.083.051-.035.048-.059s-.033.041-.058.045c-.035.026-.049,0-.118.049a.368.368,0,0,1-.195.044,1.387,1.387,0,0,1,.178-.022c2.416-.312,5.672.616,8.427,1.691Z" transform="translate(-551.887 -366.621)" fill="#bd8200"/>
      </g>
    </g>
  </g>
</svg>
