<svg xmlns="http://www.w3.org/2000/svg" width="690" height="430.4" viewBox="0 0 690 430.4">
  <g id="OBJECTS" transform="translate(0)">
    <g id="Group_29" data-name="Group 29" transform="translate(0)">
      <g id="Group_6" data-name="Group 6" transform="translate(4.129)">
        <g id="Group_5" data-name="Group 5">
          <path id="Path_1" data-name="Path 1" d="M605.7,334.781h57.48c30.936,0,56.246,25.8,56.246,57.331h0c0,31.532-25.31,57.331-56.246,57.331H177.16c-50.095,0-91.08-41.775-91.08-92.834h0c0-51.058,40.985-92.833,91.079-92.833h0c21.18,0,38.51-17.663,38.51-39.253h0c0-21.589-17.33-39.252-38.511-39.252H130.811c-22.021,0-40.038-18.364-40.038-40.809h0c0-22.446,18.017-40.809,40.038-40.809h58.608a15.788,15.788,0,0,0,15.588-15.889h0a15.786,15.786,0,0,0-15.588-15.887H179.087A10.9,10.9,0,0,1,168.33,60.909h0a10.9,10.9,0,0,1,10.757-10.965h67.792c14.277,0,15.868,17.192,51.931,17.192H402.721A14.217,14.217,0,0,1,416.76,81.443h0a14.218,14.218,0,0,1-14.038,14.308h-13.48a20.6,20.6,0,0,0-20.341,20.73h0a20.6,20.6,0,0,0,20.341,20.732h20.286c54.784,0,62.523,14.593,72.117,43.618S541.074,212.2,541.074,212.2h68.14c16.858,0,30.65,14.059,30.65,31.241h0c0,17.183-13.793,31.241-30.65,31.241H605.7c-16.214,0-29.481,13.523-29.481,30.051h0c0,16.527,13.267,30.049,29.481,30.049ZM148.9,71.875A10.967,10.967,0,1,0,138.14,60.909,10.864,10.864,0,0,0,148.9,71.875Z" transform="translate(-75.197 -49.944)" fill="#e2e8f5" fill-rule="evenodd"/>
          <g id="Group_1" data-name="Group 1" transform="translate(34.206)">
            <path id="Path_2" data-name="Path 2" d="M246.543,419.042H241.9V390.881l-17.581,17.581,10.581,10.58h-4.371l-8.4-8.395-8.395,8.395h-4.372l10.581-10.58-17.581-17.581v28.161h-4.637V199.851h4.637v5.339l5.34-5.339h4.371l-9.711,9.71v.266l19.767,19.766L241.9,209.827v-.266l-9.71-9.71h4.371l5.339,5.339v-5.339h4.638v58.108a27.542,27.542,0,0,0-4.638,1.2v-.788l-1.275,1.275a28.023,28.023,0,0,0-15.229,15.23l-1.077,1.076.488.488a27.117,27.117,0,0,0-.929,3.441l-1.744-1.743L202.372,297.9v.266l19.767,19.767,11.252-11.252a28.033,28.033,0,0,0,2.51,1.861L224.324,320.12,241.9,337.7v-26.17a27.447,27.447,0,0,0,4.638,1.2V419.042ZM241.9,381.871V346.71l-17.581,17.581,17.581,17.58Zm0-132.511V214.2L224.324,231.78,241.9,249.36ZM202.372,214.2V249.36l17.581-17.58L202.372,214.2Zm0,44.171v35.162l17.581-17.581-17.581-17.581Zm0,44.171V337.7l17.581-17.581-17.581-17.58Zm0,44.17v35.161l17.581-17.58L202.372,346.71ZM241.9,253.731l-19.766-19.766-19.767,19.766V254l19.767,19.768L241.9,254v-.266Zm0,88.341-19.766-19.766-19.767,19.766v.267l19.767,19.766L241.9,342.339v-.267Zm0,44.171-19.766-19.766-19.767,19.766v.267l19.767,19.765L241.9,386.51Z" transform="translate(245.321 -19.544)" fill="#bfcce8" fill-rule="evenodd"/>
            <path id="Path_3" data-name="Path 3" d="M570.86,449.442h-4.636v-30.48l-17.581,19.029,10.581,11.451h-4.371l-8.4-9.086-8.4,9.086H533.69l10.581-11.451L526.69,418.962v30.48h-4.637v-197.5a39.329,39.329,0,0,0,4.637-6.289v20.132l17.581-19.028-12.7-13.747q.411-1.992.628-4.053l14.259,15.433L566.224,223v-.288l-19.767-21.4-14.666,15.875q-.345-1.935-.857-3.8l13.337-14.435L526.69,179.918v23.472a39.329,39.329,0,0,0-4.637-6.289V91.145a17.111,17.111,0,0,0,.339-3.383h0a17.109,17.109,0,0,0-.339-3.382V49.944h4.637V74.55l17.581-19.029-5.153-5.577h4.371l2.968,3.211,2.967-3.211H553.8l-5.153,5.577L566.224,74.55V50.629a19.271,19.271,0,0,1,4.636,2.322V449.442Zm-4.636-40.233V371.152l-17.581,19.029,17.581,19.028Zm0-47.808V323.345l-17.581,19.028L566.224,361.4Zm0-47.808V275.535l-17.581,19.029,17.581,19.029Zm0-47.809V227.726l-17.581,19.03,17.581,19.028Zm0-47.808V179.918l-17.581,19.029,17.581,19.029Zm0-47.809V132.109l-17.581,19.03,17.581,19.028Zm0-47.808V84.3l-17.581,19.028,17.581,19.03ZM526.69,84.3v38.058l17.581-19.03L526.69,84.3Zm0,47.808v38.058l17.581-19.028-17.581-19.03Zm0,143.426v38.058l17.581-19.029L526.69,275.535Zm0,47.809V361.4l17.581-19.029L526.69,323.345Zm0,47.808v38.057l17.581-19.028L526.69,371.152ZM566.224,79.281,546.457,57.887,526.69,79.281v.288l19.767,21.4,19.767-21.4v-.288Zm0,47.809-19.767-21.4-19.767,21.4v.288l19.767,21.394,19.767-21.394v-.288Zm0,47.808L546.457,153.5,526.69,174.9v.288l19.767,21.4,19.767-21.4V174.9Zm0,95.617-19.767-21.394L526.69,270.516v.288l19.767,21.4,19.767-21.4v-.288Zm0,47.809-19.767-21.394L526.69,318.325v.288l19.767,21.4,19.767-21.4v-.288Zm0,47.808-19.767-21.394L526.69,366.133v.289l19.767,21.394,19.767-21.394v-.289Zm0,47.809-19.767-21.394L526.69,413.942v.289l19.767,21.393,19.767-21.393Z" transform="translate(-427.211 -49.944)" fill="#bfcce8" fill-rule="evenodd"/>
            <path id="Path_4" data-name="Path 4" d="M109.4,313.106h6.833v8.377l8.377-8.377h6.441l-14.818,14.819v.391l29.126,29.125,29.126-29.125v-.391L160.4,313.835a52.356,52.356,0,0,1,8.667,2.225l5.424,5.423V318.3a53.051,53.051,0,0,1,6.832,3.938v87.663a53.053,53.053,0,0,1-6.832,3.939v-14l-19.065,19.065q-1.858.132-3.748.135h-2.829L174.488,393.4v-.392l-29.126-29.126-29.126,29.126v.392l25.642,25.641h-6.441l-19.2-19.2v19.2H109.4V313.106Zm0-111.954a29.1,29.1,0,0,1,16.256,12.86l-9.423-9.423V253.1a28.774,28.774,0,0,1-6.833,3.174V201.152Zm65.085,185.416v-51.81l-25.906,25.9,25.906,25.906Zm-58.252-51.81v51.81l25.9-25.906Z" transform="translate(405.385 -19.544)" fill="#bfcce8" fill-rule="evenodd"/>
            <path id="Path_5" data-name="Path 5" d="M659.193,449.442h-6.834V428.661l-17.84,19.31q-2.679-.526-5.3-1.234l23.141-25.048v-.424L623.234,389.74l-29.125,31.525v.424l15.736,17.033a87.736,87.736,0,0,1-22.57-18.648V293.142a90.053,90.053,0,0,1,9.511-9.445l26.448,28.625L652.359,280.8v-.423l-14.506-15.7q2.884-.435,5.826-.663l8.68,9.394v-9.735a33.538,33.538,0,0,0,6.834-1.263V449.442Zm0-262.8a33.538,33.538,0,0,0-6.834-1.265V146.882l-25.9,28.04,9.561,10.348h-6.44l-6.341-6.863-6.34,6.863h-6.442l9.561-10.348-25.9-28.04v36.267a36.251,36.251,0,0,1-6.834-3.352V109.123a36.251,36.251,0,0,1,6.834-3.352v26.742l25.9-28.038-.763-.825h7.968l-.764.825,25.9,28.038V103.651h6.834v82.988Zm0-114.764h-7.655a9.329,9.329,0,0,1-1.318-.094l2.139-2.315v-.424l-10.5-11.365a11.2,11.2,0,0,1,2.4-4.374l8.1,8.768V49.944h6.834V71.875Zm-6.834,342.418V358.216l-25.9,28.038,25.9,28.04Zm0-70.446V287.772l-25.9,28.038,25.9,28.039Zm-58.25-56.076v56.076l25.9-28.039-25.9-28.038Zm0,70.444v56.077l25.9-28.04-25.9-28.038Zm58.25-218.73-29.125-31.524-29.125,31.524v.424l29.125,31.525,29.125-31.525v-.424Zm0,211.335L623.234,319.3,594.109,350.82v.423l29.125,31.524,29.125-31.524Z" transform="translate(-587.275 -49.944)" fill="#bfcce8" fill-rule="evenodd"/>
          </g>
          <g id="Group_4" data-name="Group 4" transform="translate(460.733 315.191)">
            <g id="Group_2" data-name="Group 2" transform="translate(9.854)">
              <rect id="Rectangle_3" data-name="Rectangle 3" width="53.449" height="39.718" rx="3.432" transform="translate(30.565)" fill="#90a9d5"/>
              <rect id="Rectangle_4" data-name="Rectangle 4" width="53.449" height="39.718" rx="3.432" transform="translate(0)" fill="#b6c7e6"/>
              <path id="Rectangle_5" data-name="Rectangle 5" d="M1.96,0H36.45a1.96,1.96,0,0,1,1.96,1.96v9.563a1.961,1.961,0,0,1-1.961,1.961H1.961A1.961,1.961,0,0,1,0,11.523V1.96A1.96,1.96,0,0,1,1.96,0Z" transform="translate(7.519 13.117)" fill="#90a9d5"/>
              <path id="Rectangle_6" data-name="Rectangle 6" d="M.428,0h16.96a.428.428,0,0,1,.428.428V2.515a.427.427,0,0,1-.427.427H.428A.428.428,0,0,1,0,2.514V.428A.428.428,0,0,1,.428,0Z" transform="translate(24.109 15.405)" fill="#e6e4eb"/>
              <path id="Rectangle_7" data-name="Rectangle 7" d="M.428,0h8.38a.427.427,0,0,1,.427.427V2.514a.428.428,0,0,1-.428.428H.428A.428.428,0,0,1,0,2.514V.428A.428.428,0,0,1,.428,0Z" transform="translate(32.691 20.064)" fill="#e6e4eb"/>
            </g>
            <g id="Group_3" data-name="Group 3" transform="translate(0 39.718)">
              <path id="Rectangle_8" data-name="Rectangle 8" d="M4.114,0H59.937a4.113,4.113,0,0,1,4.113,4.113V43.484A4.113,4.113,0,0,1,59.937,47.6H4.114A4.114,4.114,0,0,1,0,43.483V4.114A4.114,4.114,0,0,1,4.114,0Z" fill="#90a9d5"/>
              <path id="Rectangle_9" data-name="Rectangle 9" d="M4.113,0H59.936a4.113,4.113,0,0,1,4.113,4.113V43.484A4.113,4.113,0,0,1,59.936,47.6H4.114A4.114,4.114,0,0,1,0,43.483V4.113A4.113,4.113,0,0,1,4.113,0Z" transform="translate(36.628)" fill="#b6c7e6"/>
              <rect id="Rectangle_10" data-name="Rectangle 10" width="46.028" height="16.156" rx="2.349" transform="translate(45.639 15.721)" fill="#90a9d5"/>
              <rect id="Rectangle_11" data-name="Rectangle 11" width="21.348" height="3.526" rx="0.513" transform="translate(50.438 18.461)" fill="#e6e4eb"/>
              <rect id="Rectangle_12" data-name="Rectangle 12" width="11.065" height="3.526" rx="0.513" transform="translate(50.437 24.044)" fill="#e6e4eb"/>
            </g>
          </g>
          <path id="Path_6" data-name="Path 6" d="M478.532,160.855a15.028,15.028,0,1,0,3.269,4.891,15.089,15.089,0,0,0-3.269-4.891Zm-5.419-1.983a13.732,13.732,0,1,1-5.226-1.033,13.691,13.691,0,0,1,5.226,1.033Zm1.664-11.078a24.232,24.232,0,0,1,2.775.989,24.516,24.516,0,0,1,2.665,1.331,24.9,24.9,0,0,1,4.8,3.621,1.571,1.571,0,0,0,1.883.228c2.211-1.276,4.535-2.54,6.7-3.869a.914.914,0,0,1,.326-.1,1.016,1.016,0,0,1,.369.028,1,1,0,0,1,.34.165.975.975,0,0,1,.243.278c1.612,2.439,3.229,5.59,4.722,8.176a.947.947,0,0,1,.118.347.989.989,0,0,1-.029.381.964.964,0,0,1-.165.339.934.934,0,0,1-.277.244c-1.989,1.315-4.552,2.631-6.659,3.848a1.563,1.563,0,0,0-.665.745,1.58,1.58,0,0,0-.1.329l-.138.046.155.621c.121.489.226.978.316,1.463s.162.969.225,1.486.107,1,.136,1.5.044.988.044,1.514-.014,1.031-.044,1.513-.075.995-.136,1.5-.139,1.011-.225,1.484-.2.976-.316,1.465a1.57,1.57,0,0,0,.811,1.778l5.9,3.406,0,0,.7.4a.952.952,0,0,1,.278.244,1.018,1.018,0,0,1,.193.72.941.941,0,0,1-.118.347l-4.366,7.566h0l-.353.611a.962.962,0,0,1-.243.278,1,1,0,0,1-.718.192.941.941,0,0,1-.346-.117c-2.112-1.327-4.5-2.6-6.675-3.852a1.575,1.575,0,0,0-1.877.226l0,0a24.55,24.55,0,0,1-10.31,5.959,1.577,1.577,0,0,0-1.145,1.519l0,7.7a.929.929,0,0,1-.071.361.989.989,0,0,1-.52.521.944.944,0,0,1-.363.072h-9.444a.934.934,0,0,1-.361-.072.989.989,0,0,1-.312-.209,1,1,0,0,1-.209-.312.93.93,0,0,1-.071-.361v-7.7A1.6,1.6,0,0,0,461,195.206a24.027,24.027,0,0,1-2.774-.988,24.8,24.8,0,0,1-7.469-4.952,1.579,1.579,0,0,0-1.962-.179l-6.588,3.8a.911.911,0,0,1-.35.116,1,1,0,0,1-.379-.027.946.946,0,0,1-.583-.443c-1.565-2.73-3.155-5.448-4.722-8.177a.921.921,0,0,1-.117-.348,1.01,1.01,0,0,1,.192-.718.909.909,0,0,1,.272-.244l6.666-3.848a1.568,1.568,0,0,0,.665-.745,1.642,1.642,0,0,0,.084-.254l.173-.035-.174-.707c-.122-.488-.227-.977-.317-1.463s-.162-.969-.225-1.486-.107-1-.137-1.5-.044-.987-.044-1.513.015-1.03.044-1.512.076-.993.137-1.5q.1-.784.225-1.49c.09-.485.2-.973.317-1.461a1.573,1.573,0,0,0-.81-1.778l-6.6-3.811a.9.9,0,0,1-.274-.243.951.951,0,0,1-.164-.34.978.978,0,0,1-.028-.379.92.92,0,0,1,.117-.348c1.612-2.4,3.226-5.6,4.722-8.177a.978.978,0,0,1,.244-.278.991.991,0,0,1,.339-.165,1.016,1.016,0,0,1,.379-.028.93.93,0,0,1,.348.119l6.67,3.85a1.565,1.565,0,0,0,1,.2,1.59,1.59,0,0,0,.9-.446,25.047,25.047,0,0,1,2.284-1.947,24.6,24.6,0,0,1,5.184-2.993,24.226,24.226,0,0,1,2.822-1,1.576,1.576,0,0,0,1.146-1.519l0-7.7a.957.957,0,0,1,.07-.362.976.976,0,0,1,.211-.31.944.944,0,0,1,.311-.21.933.933,0,0,1,.361-.071h9.444a.943.943,0,0,1,.363.071.962.962,0,0,1,.591.882v7.7a1.573,1.573,0,0,0,.339.977,1.6,1.6,0,0,0,.876.56Zm3.32-.292a26.147,26.147,0,0,1,7.888,5.23.18.18,0,0,0,.106.049.183.183,0,0,0,.115-.022q3.363-1.941,6.727-3.885a2.311,2.311,0,0,1,.841-.264,2.392,2.392,0,0,1,.885.066,2.362,2.362,0,0,1,.823.4,2.288,2.288,0,0,1,.6.687c1.625,2.631,3.169,5.483,4.723,8.174a2.329,2.329,0,0,1,.292.87,2.358,2.358,0,0,1-.061.915,2.332,2.332,0,0,1-.4.824,2.288,2.288,0,0,1-.687.6c-2.144,1.325-4.471,2.582-6.664,3.849a.179.179,0,0,0-.076.087.181.181,0,0,0-.011.117l.153.622-.008,0q.1.453.186.92.147.8.241,1.574t.143,1.579q.048.816.049,1.6t-.049,1.594c-.033.543-.081,1.071-.143,1.581s-.144,1.039-.241,1.572-.21,1.046-.332,1.546a.173.173,0,0,0,.012.121.186.186,0,0,0,.082.09c2.449,1.308,4.936,2.847,7.357,4.245l-.086.108.075.093a2.368,2.368,0,0,1,.465,1.739,2.308,2.308,0,0,1-.293.869l-5.074,8.788-.093-.056c-.051.045-.1.089-.158.13a2.362,2.362,0,0,1-.823.4,2.388,2.388,0,0,1-.913.061,2.342,2.342,0,0,1-.847-.279c-2.218-1.177-4.505-2.6-6.7-3.867a.2.2,0,0,0-.111-.019.2.2,0,0,0-.11.05,26.037,26.037,0,0,1-10.89,6.294.2.2,0,0,0-.1.066.173.173,0,0,0-.037.113v7.7a2.348,2.348,0,0,1-.692,1.658,2.374,2.374,0,0,1-.761.51,2.319,2.319,0,0,1-.9.18h-9.444a2.327,2.327,0,0,1-.9-.18A2.357,2.357,0,0,1,461,205.335a2.341,2.341,0,0,1-.18-.9v-7.7a.184.184,0,0,0-.037-.117.189.189,0,0,0-.1-.064l-.031-.011a25.822,25.822,0,0,1-2.967-1.054,26.123,26.123,0,0,1-7.889-5.23.176.176,0,0,0-.109-.051.2.2,0,0,0-.121.03l-6.664,3.847a2.31,2.31,0,0,1-.866.292,2.365,2.365,0,0,1-1.738-.466,2.337,2.337,0,0,1-.592-.667c-1.751-2.815-3.4-5.9-5.075-8.791l.09-.054a2.064,2.064,0,0,1-.04-.222,2.391,2.391,0,0,1,.06-.913,2.341,2.341,0,0,1,.407-.823,2.3,2.3,0,0,1,.684-.6L442.491,178a.179.179,0,0,0,.075-.086.194.194,0,0,0,.011-.121l-.173-.705.01,0c-.06-.274-.115-.553-.168-.835-.1-.533-.179-1.059-.241-1.574s-.111-1.038-.143-1.581-.05-1.075-.05-1.594.017-1.05.05-1.594.08-1.07.143-1.584.142-1.034.241-1.572.209-1.044.332-1.542a.2.2,0,0,0-.013-.125.191.191,0,0,0-.085-.086l-6.657-3.844a2.27,2.27,0,0,1-.684-.6,2.357,2.357,0,0,1-.185-2.584c1.587-2.939,3.406-5.9,5.085-8.809l.1.056c.05-.046.1-.089.156-.131a2.364,2.364,0,0,1,1.737-.466,2.315,2.315,0,0,1,.866.288l.494.283,0,0,6.182,3.568a.184.184,0,0,0,.225-.029l.016-.016a25.984,25.984,0,0,1,10.874-6.278.18.18,0,0,0,.1-.066.163.163,0,0,0,.038-.113v-7.7a2.344,2.344,0,0,1,.693-1.658,2.381,2.381,0,0,1,.759-.51,2.326,2.326,0,0,1,.9-.18h9.444a2.319,2.319,0,0,1,.9.18,2.42,2.42,0,0,1,.763.51,2.343,2.343,0,0,1,.69,1.658v7.7a.2.2,0,0,0,.038.118.191.191,0,0,0,.1.063l.03.011A26.218,26.218,0,0,1,478.1,147.5Z" transform="translate(-230.158 -41.246)" fill="#bfcce8" fill-rule="evenodd"/>
          <path id="Path_7" data-name="Path 7" d="M88.352,236.337a15.044,15.044,0,1,0,3.268,4.892,15.085,15.085,0,0,0-3.268-4.892Zm-5.419-1.982a13.738,13.738,0,1,1-5.227-1.033,13.685,13.685,0,0,1,5.227,1.033ZM84.6,223.277a24.5,24.5,0,0,1,5.439,2.32,24.866,24.866,0,0,1,4.8,3.621,1.571,1.571,0,0,0,1.883.228c2.21-1.276,4.535-2.539,6.7-3.869a.909.909,0,0,1,.325-.1,1,1,0,0,1,.709.193.95.95,0,0,1,.244.278c1.612,2.439,3.229,5.59,4.722,8.176a.947.947,0,0,1,.118.347,1.008,1.008,0,0,1-.029.381.946.946,0,0,1-.443.583c-1.989,1.314-4.551,2.631-6.66,3.848a1.568,1.568,0,0,0-.763,1.073l-.137.047.154.621q.18.733.316,1.463c.086.473.162.969.224,1.486s.108,1,.137,1.5.044.988.044,1.514-.015,1.031-.044,1.513-.076.994-.137,1.5-.138,1.011-.225,1.484-.195.976-.316,1.464a1.575,1.575,0,0,0,.813,1.78l5.9,3.4,0,0,.7.4a.937.937,0,0,1,.443.583,1.008,1.008,0,0,1,.029.381.958.958,0,0,1-.118.348l-4.367,7.564h0l-.353.612a.946.946,0,0,1-.244.277.975.975,0,0,1-.339.166,1,1,0,0,1-.379.027.92.92,0,0,1-.345-.118c-2.113-1.327-4.5-2.594-6.676-3.851a1.572,1.572,0,0,0-1.876.225l0,0a24.814,24.814,0,0,1-4.8,3.62,24.345,24.345,0,0,1-5.507,2.339,1.575,1.575,0,0,0-1.145,1.519l0,7.7a.93.93,0,0,1-.071.361.992.992,0,0,1-.521.522.953.953,0,0,1-.362.07H72.984a.96.96,0,0,1-.362-.07,1.013,1.013,0,0,1-.311-.209,1.027,1.027,0,0,1-.209-.313.93.93,0,0,1-.072-.361v-7.7a1.591,1.591,0,0,0-1.214-1.537,24.526,24.526,0,0,1-5.44-2.321,24.86,24.86,0,0,1-4.8-3.62,1.579,1.579,0,0,0-1.961-.18l-6.589,3.8a.924.924,0,0,1-.348.116,1,1,0,0,1-.38-.027.967.967,0,0,1-.339-.166.933.933,0,0,1-.244-.277c-1.565-2.73-3.155-5.448-4.722-8.177a.956.956,0,0,1-.118-.349.994.994,0,0,1,.029-.378.95.95,0,0,1,.164-.34.908.908,0,0,1,.272-.243L53,254.685a1.566,1.566,0,0,0,.664-.745,1.463,1.463,0,0,0,.084-.255l.174-.035-.175-.706c-.12-.488-.226-.977-.316-1.464s-.162-.969-.225-1.485-.108-1-.137-1.5-.044-.986-.044-1.513.015-1.03.044-1.512.076-.994.137-1.5q.1-.784.225-1.491.135-.728.316-1.46a1.568,1.568,0,0,0-.1-1.042,1.589,1.589,0,0,0-.709-.736l-6.6-3.811a.9.9,0,0,1-.275-.244.939.939,0,0,1-.164-.339,1,1,0,0,1-.029-.379.952.952,0,0,1,.118-.348c1.612-2.4,3.226-5.6,4.722-8.177a.95.95,0,0,1,.244-.278.982.982,0,0,1,.339-.165,1.018,1.018,0,0,1,.379-.028.935.935,0,0,1,.349.119l6.669,3.85a1.559,1.559,0,0,0,1,.2,1.588,1.588,0,0,0,.9-.444,24.612,24.612,0,0,1,4.785-3.6,24.492,24.492,0,0,1,5.506-2.338,1.578,1.578,0,0,0,1.144-1.518l0-7.7a.939.939,0,0,1,.072-.362.972.972,0,0,1,.21-.31.931.931,0,0,1,.672-.281h9.444a.935.935,0,0,1,.362.071.96.96,0,0,1,.592.882v7.7a1.579,1.579,0,0,0,.339.977,1.6,1.6,0,0,0,.876.559Zm3.32-.292a26.146,26.146,0,0,1,7.888,5.23.182.182,0,0,0,.1.05.193.193,0,0,0,.116-.023q3.363-1.941,6.726-3.885a2.328,2.328,0,0,1,.842-.264,2.371,2.371,0,0,1,1.708.471,2.314,2.314,0,0,1,.6.687c1.625,2.631,3.168,5.483,4.723,8.174a2.329,2.329,0,0,1,.292.87,2.366,2.366,0,0,1-.466,1.739,2.3,2.3,0,0,1-.687.6c-2.144,1.324-4.471,2.582-6.665,3.849a.177.177,0,0,0-.075.087.181.181,0,0,0-.011.117l.154.622-.009,0c.067.3.128.609.186.921.1.533.179,1.058.241,1.573s.11,1.037.143,1.579.049,1.076.049,1.6-.017,1.051-.049,1.594-.081,1.071-.143,1.581-.144,1.039-.241,1.572-.21,1.045-.333,1.546a.18.18,0,0,0,.013.121.175.175,0,0,0,.082.089c2.449,1.309,4.936,2.847,7.357,4.246l-.086.109.074.093a2.362,2.362,0,0,1,.466,1.738,2.3,2.3,0,0,1-.293.869l-5.074,8.788-.094-.057c-.051.046-.1.09-.157.131a2.379,2.379,0,0,1-.823.4,2.38,2.38,0,0,1-1.76-.217c-2.219-1.179-4.5-2.6-6.7-3.867a.185.185,0,0,0-.112-.02.2.2,0,0,0-.109.05,26.07,26.07,0,0,1-5.068,3.819,25.863,25.863,0,0,1-5.823,2.475.191.191,0,0,0-.1.065.177.177,0,0,0-.037.114v7.7a2.318,2.318,0,0,1-.18.895,2.38,2.38,0,0,1-1.273,1.273,2.323,2.323,0,0,1-.9.18H72.984a2.318,2.318,0,0,1-.895-.18,2.4,2.4,0,0,1-.763-.51,2.36,2.36,0,0,1-.51-.763,2.318,2.318,0,0,1-.18-.895v-7.7a.175.175,0,0,0-.142-.181l-.03-.011a25.827,25.827,0,0,1-5.785-2.462,25.986,25.986,0,0,1-5.071-3.822.191.191,0,0,0-.11-.052.2.2,0,0,0-.119.03l-6.665,3.849a2.332,2.332,0,0,1-.866.291,2.4,2.4,0,0,1-.914-.061,2.362,2.362,0,0,1-.823-.4,2.325,2.325,0,0,1-.593-.667c-1.751-2.816-3.406-5.9-5.076-8.791l.09-.053c-.017-.075-.029-.148-.039-.223a2.37,2.37,0,0,1,.061-.913,2.34,2.34,0,0,1,.405-.822,2.28,2.28,0,0,1,.685-.6l6.667-3.849a.175.175,0,0,0,.075-.086.2.2,0,0,0,.011-.121l-.173-.7.01,0c-.06-.274-.116-.552-.168-.836-.1-.532-.179-1.058-.241-1.572s-.11-1.039-.143-1.582-.049-1.075-.049-1.594.016-1.05.049-1.594.08-1.07.143-1.584.142-1.035.241-1.572.209-1.043.332-1.542a.2.2,0,0,0-.013-.124.18.18,0,0,0-.085-.087l-6.658-3.844a2.27,2.27,0,0,1-.684-.6,2.362,2.362,0,0,1-.465-1.735,2.337,2.337,0,0,1,.281-.849c1.587-2.939,3.406-5.9,5.085-8.809l.094.056c.051-.046.1-.09.158-.131a2.362,2.362,0,0,1,.823-.4,2.391,2.391,0,0,1,.913-.061,2.3,2.3,0,0,1,.866.288l.493.283,0,0,6.183,3.568a.185.185,0,0,0,.118.024.188.188,0,0,0,.107-.053l.016-.016A25.993,25.993,0,0,1,70.5,221.919a.192.192,0,0,0,.1-.066.167.167,0,0,0,.038-.112v-7.7a2.339,2.339,0,0,1,.693-1.658,2.358,2.358,0,0,1,.76-.51,2.318,2.318,0,0,1,.895-.18h9.444a2.323,2.323,0,0,1,.9.18,2.415,2.415,0,0,1,.763.51,2.341,2.341,0,0,1,.69,1.658v7.7a.2.2,0,0,0,.038.117.189.189,0,0,0,.1.063l.03.011A25.972,25.972,0,0,1,87.917,222.985Z" transform="translate(574.931 -33.636)" fill="#bfcce8" fill-rule="evenodd"/>
          <path id="Path_8" data-name="Path 8" d="M141.3,280.814Zm-3.321-12.649a6.392,6.392,0,1,0,1.871,4.519,6.374,6.374,0,0,0-1.871-4.519Zm-1.381-6.334a11.253,11.253,0,0,1,4.7,2.723.391.391,0,0,0,.468.056l2.97-1.713.016-.011a.741.741,0,0,1,.989.28l.012.02,2.089,3.619a.742.742,0,0,1-.27,1.006l-.02.012-2.945,1.7a.394.394,0,0,0-.186.433h0a11.377,11.377,0,0,1,0,5.454.39.39,0,0,0,.207.445l2.944,1.7h0a.743.743,0,0,1,.27,1.007l-2.1,3.638h0a.742.742,0,0,1-1.005.27l-.023-.012-2.948-1.7a.393.393,0,0,0-.467.058,11.457,11.457,0,0,1-2.2,1.656,11.274,11.274,0,0,1-2.521,1.071.392.392,0,0,0-.285.377v3.425a.739.739,0,0,1-.735.735h-4.2a.739.739,0,0,1-.734-.735v-3.425a.393.393,0,0,0-.3-.382,11.262,11.262,0,0,1-2.5-1.066,11.432,11.432,0,0,1-2.2-1.656.392.392,0,0,0-.488-.045l-2.949,1.7a.741.741,0,0,1-1-.27l-.013-.02-2.089-3.621h0a.741.741,0,0,1,.269-1l2.967-1.713a.394.394,0,0,0,.185-.433h0a11.383,11.383,0,0,1,0-5.454.389.389,0,0,0-.207-.444l-2.945-1.7a.742.742,0,0,1-.269-1.005l.012-.022,2.089-3.618h0a.739.739,0,0,1,1-.27h0l2.969,1.713a.391.391,0,0,0,.477-.065,11.279,11.279,0,0,1,4.709-2.719.392.392,0,0,0,.286-.377v-3.425a.738.738,0,0,1,.734-.735h4.2a.737.737,0,0,1,.735.735v3.425A.392.392,0,0,0,136.6,261.831Z" transform="translate(463.389 -31.476)" fill="#bfcce8" fill-rule="evenodd"/>
          <path id="Path_9" data-name="Path 9" d="M260.839,173.883a1.1,1.1,0,0,1,2.192,0v2.577h2.577a1.1,1.1,0,1,1,0,2.192h-2.577v2.578a1.1,1.1,0,1,1-2.192,0v-2.578h-2.577a1.1,1.1,0,0,1,0-2.192h2.577Z" transform="translate(194.162 -39.644)" fill="#bfcce8" fill-rule="evenodd"/>
          <path id="Path_10" data-name="Path 10" d="M345.993,102.644ZM342.671,90a6.392,6.392,0,1,0,1.871,4.518A6.372,6.372,0,0,0,342.671,90Zm-1.381-6.334a11.269,11.269,0,0,1,2.505,1.066,11.422,11.422,0,0,1,2.2,1.656.39.39,0,0,0,.467.057l2.97-1.714.016-.01a.739.739,0,0,1,.988.28l.013.02,2.089,3.618a.74.74,0,0,1-.27,1.007l-.02.013-2.945,1.7a.39.39,0,0,0-.185.433h0a11.13,11.13,0,0,1,.248,1.35,11.374,11.374,0,0,1-.248,4.1.392.392,0,0,0,.208.445l2.943,1.7h0a.74.74,0,0,1,.27,1.006l-2.1,3.639h0a.739.739,0,0,1-1,.271l-.022-.012-2.949-1.7a.393.393,0,0,0-.466.057,11.341,11.341,0,0,1-2.2,1.656,11.183,11.183,0,0,1-2.521,1.071.393.393,0,0,0-.285.378v3.425a.739.739,0,0,1-.735.735h-4.2a.739.739,0,0,1-.735-.735v-3.425a.4.4,0,0,0-.3-.383,11.216,11.216,0,0,1-2.5-1.066,11.343,11.343,0,0,1-2.2-1.656.389.389,0,0,0-.487-.044l-2.95,1.7a.74.74,0,0,1-1.005-.271l-.013-.02-2.089-3.619h0a.742.742,0,0,1,.269-1L327,97.673a.393.393,0,0,0,.185-.433h0a11.165,11.165,0,0,1-.247-1.35,11.463,11.463,0,0,1,0-2.754,11.149,11.149,0,0,1,.247-1.349.393.393,0,0,0-.207-.446l-2.945-1.7a.742.742,0,0,1-.269-1l.012-.022L325.87,85h0a.739.739,0,0,1,1.005-.27h0l2.969,1.714a.392.392,0,0,0,.477-.064,11.36,11.36,0,0,1,2.189-1.649,11.23,11.23,0,0,1,2.521-1.071.393.393,0,0,0,.285-.377V79.854a.737.737,0,0,1,.735-.735h4.2a.737.737,0,0,1,.735.735v3.425A.394.394,0,0,0,341.29,83.661Z" transform="translate(37.383 -49.944)" fill="#bfcce8" fill-rule="evenodd"/>
          <path id="Path_11" data-name="Path 11" d="M687.533,73.764a1.1,1.1,0,0,1,2.192,0v2.577H692.3a1.1,1.1,0,1,1,0,2.192h-2.577v2.578a1.1,1.1,0,0,1-2.192,0V78.533h-2.578a1.1,1.1,0,0,1,0-2.192h2.578Z" transform="translate(-683.86 -49.944)" fill="#bfcce8" fill-rule="evenodd"/>
          <path id="Path_12" data-name="Path 12" d="M48.673,359.689a1.1,1.1,0,1,1,2.191,0v2.577h2.577a1.1,1.1,0,1,1,0,2.192H50.864v2.577a1.1,1.1,0,1,1-2.191,0v-2.577H46.1a1.1,1.1,0,0,1,0-2.192h2.578Z" transform="translate(630.777 -19.544)" fill="#bfcce8" fill-rule="evenodd"/>
          <path id="Path_13" data-name="Path 13" d="M415.952,160.614Zm-3.323-12.648a6.392,6.392,0,1,0,1.871,4.518,6.375,6.375,0,0,0-1.871-4.518Zm-1.381-6.335a11.253,11.253,0,0,1,2.505,1.067,11.383,11.383,0,0,1,2.2,1.656.388.388,0,0,0,.467.057l2.97-1.714.016-.01a.744.744,0,0,1,.989.279l.012.021,2.089,3.618a.741.741,0,0,1-.27,1.007l-.02.012-2.946,1.7a.393.393,0,0,0-.183.433h0a11.33,11.33,0,0,1,.249,1.35,11.6,11.6,0,0,1,0,2.754,11.366,11.366,0,0,1-.249,1.35.393.393,0,0,0,.208.445l2.944,1.7h0a.74.74,0,0,1,.27,1.006l-2.1,3.64h0a.74.74,0,0,1-.447.341.732.732,0,0,1-.558-.072l-.022-.012-2.949-1.7a.392.392,0,0,0-.466.057,11.342,11.342,0,0,1-2.2,1.656,11.183,11.183,0,0,1-2.521,1.071.394.394,0,0,0-.285.378v3.425a.736.736,0,0,1-.736.734h-4.2a.736.736,0,0,1-.735-.734v-3.425a.394.394,0,0,0-.3-.383,11.253,11.253,0,0,1-4.7-2.722.392.392,0,0,0-.488-.045l-2.95,1.7a.74.74,0,0,1-1.005-.269l-.012-.021-2.09-3.62h0a.73.73,0,0,1-.071-.557.739.739,0,0,1,.34-.448l2.967-1.712a.392.392,0,0,0,.185-.433h0a10.978,10.978,0,0,1-.247-1.35,11.467,11.467,0,0,1,0-2.754,10.944,10.944,0,0,1,.247-1.35.391.391,0,0,0-.207-.445l-2.945-1.7a.742.742,0,0,1-.269-1.005l.013-.022,2.088-3.619h0a.745.745,0,0,1,1.006-.27h0l2.971,1.714a.39.39,0,0,0,.476-.065,11.388,11.388,0,0,1,2.188-1.648,11.256,11.256,0,0,1,2.522-1.071.393.393,0,0,0,.285-.377v-3.426a.738.738,0,0,1,.735-.734h4.2a.737.737,0,0,1,.736.734v3.426A.392.392,0,0,0,411.248,141.631Z" transform="translate(-106.698 -42.182)" fill="#bfcce8" fill-rule="evenodd"/>
          <path id="Path_14" data-name="Path 14" d="M358.2,144.285a1.1,1.1,0,1,1,2.192,0v2.577h2.577a1.1,1.1,0,0,1,0,2.193h-2.577v2.577a1.1,1.1,0,0,1-2.192,0v-2.577H355.62a1.1,1.1,0,0,1,0-2.193H358.2Z" transform="translate(-6.174 -42.126)" fill="#bfcce8" fill-rule="evenodd"/>
          <path id="Path_15" data-name="Path 15" d="M362.666,265.653a1.1,1.1,0,0,1,2.191,0v2.577h2.578a1.1,1.1,0,0,1,0,2.193h-2.578V273a1.1,1.1,0,1,1-2.191,0v-2.577h-2.578a1.1,1.1,0,0,1,0-2.193h2.578Z" transform="translate(-15.368 -31.949)" fill="#bfcce8" fill-rule="evenodd"/>
          <path id="Path_16" data-name="Path 16" d="M266.611,211.3a1.1,1.1,0,1,1,2.192,0v2.578h2.577a1.1,1.1,0,1,1,0,2.192H268.8v2.577a1.1,1.1,0,1,1-2.192,0v-2.577h-2.577a1.1,1.1,0,0,1,0-2.192h2.577Z" transform="translate(182.285 -36.507)" fill="#bfcce8" fill-rule="evenodd"/>
        </g>
        <path id="Path_17" data-name="Path 17" d="M630.944,204.813a1.1,1.1,0,0,1,2.193,0v2.577h2.576a1.1,1.1,0,1,1,0,2.192h-2.576v2.577a1.1,1.1,0,0,1-2.193,0v-2.577h-2.577a1.1,1.1,0,1,1,0-2.192h2.577Z" transform="translate(-570.682 -37.051)" fill="#bfcce8" fill-rule="evenodd"/>
      </g>
      <g id="Group_9" data-name="Group 9" transform="translate(185.192 181.862)">
        <g id="Group_7" data-name="Group 7" transform="translate(0 44.146)">
          <path id="Path_18" data-name="Path 18" d="M520.708,285.652a28.463,28.463,0,0,0-11.679,8.417c-2.912,3.536-38.546,71.8-40.836,76.248s-2.283,15.68,3.117,22.594c2.095,2.686,8.121,10.2,14.706,18.391h21.348c-7.752-11.632-17.873-26.843-18.6-28.068-1.186-2-1.781-3.937.385-7.318s30.692-38.16,30.692-38.16S533.866,298.552,520.708,285.652Z" transform="translate(-466.747 -245.552)" fill="#0f1630" stroke="#0e1632" stroke-miterlimit="22.926" stroke-width="0.216" fill-rule="evenodd"/>
          <path id="Path_19" data-name="Path 19" d="M405.063,280.161s-35.932,5.108-37.481,5.491-4.172,4-5.585,6.436-3.074,37.511-3.879,47.332,2.364,52.635,1.42,64.134c-.156,1.908-.449,4.593-.829,7.748H466.192c1.379-12.716,10.964-52.5,11.748-62.063.8-9.82,4.877-44.7,3.878-47.331s-3-6.629-4.462-7.26S440.849,283.1,440.849,283.1l-17.964,1.981Z" transform="translate(-313.621 -245.552)" fill="#cec9d0" fill-rule="evenodd"/>
          <path id="Path_20" data-name="Path 20" d="M399.325,280.161l-5.94.848a5.142,5.142,0,0,0,1.231,2.438c13.96,16,28.226,17.17,44.6,3.656a5.127,5.127,0,0,0,1.617-2.22c-3.433-1.073-5.727-1.788-5.727-1.788l-17.964,1.981Z" transform="translate(-307.883 -245.552)" fill="#fff" fill-rule="evenodd"/>
          <path id="Path_21" data-name="Path 21" d="M405.4,245.552l-.307,8.945s-1.5,18.253-1.723,21.025c-.11,1.339-1.661,3.159-4.254,4.64,11.747,13.464,22,14.305,35.786,2.933-2.319-1.884-3.552-3.931-3.443-5.271.227-2.771,1.724-21.025,1.724-21.025l1.152-8.876s-7.214.563-14.694,1.576C412.423,247.282,405.4,245.552,405.4,245.552Z" transform="translate(-307.67 -245.552)" fill="#e8685b" fill-rule="evenodd"/>
          <path id="Path_22" data-name="Path 22" d="M480.472,280.585s4.154,17.955,4.463,21.609,5.189,40.44,4.679,46.658c-.231,2.829-5.852,31.573-11.97,62.45H428.689c1.2-7.526,2.231-14.015,2.785-17.679,1.989-13.174,3.323-40.555,2.889-57.465s3.768-42.286,4.268-44.695,5.3-5.418,6.786-5.977Z" transform="translate(-391.999 -245.552)" fill="#0f1630" fill-rule="evenodd"/>
          <path id="Path_23" data-name="Path 23" d="M448.362,309.878c1.473,12.121,4.167,34.274,3.781,38.974,0,0-23.811-25.925-23.45-28.481s10.049-21.628,10.049-21.628S442.9,303.529,448.362,309.878Z" transform="translate(-354.528 -245.552)" fill="#3d4155" fill-rule="evenodd"/>
          <path id="Path_24" data-name="Path 24" d="M449.225,280.414s-1.053-.942-1.43-.974-6.837,2.156-6.837,2.156-9.424,14.816-9.579,16.708,23.142,20.953,23.142,20.953l-2.065-17.429s-3.377-17.038-4.425-21.243Z" transform="translate(-359.558 -245.552)" fill="#545a6c" fill-rule="evenodd"/>
          <path id="Path_25" data-name="Path 25" d="M333.955,294.614a28.461,28.461,0,0,1,10.152,10.207c2.3,3.963,26.343,77.122,27.877,81.879s-.3,15.843-6.752,21.785c-.7.644-1.761,1.608-3.1,2.817H335.492c7.057-7.568,13.446-14.438,14.092-15.206,1.5-1.781,2.4-3.6.811-7.286s-24.069-42.647-24.069-42.647S318.873,305.2,333.955,294.614Z" transform="translate(-170.639 -245.552)" fill="#0f1630" fill-rule="evenodd"/>
          <path id="Path_26" data-name="Path 26" d="M376.882,284s-7.022,17.039-7.922,20.6-11.7,39.054-12.214,45.272c-.226,2.765.6,30.8,1.577,61.439h48.429c.021-3.2.045-5.883.07-7.8.182-13.321,3.324-40.554,6.507-57.168S416.5,304,416.393,301.541s-4.345-6.209-5.722-7Z" transform="translate(-246.791 -245.552)" fill="#0f1630" fill-rule="evenodd"/>
          <path id="Path_27" data-name="Path 27" d="M398.686,312.025c-3.425,11.72-9.69,33.139-10.076,37.838,0,0,27.715-21.7,27.775-24.283s-6.394-22.975-6.394-22.975S405.106,306.649,398.686,312.025Z" transform="translate(-278.654 -245.552)" fill="#3d4155" fill-rule="evenodd"/>
          <path id="Path_28" data-name="Path 28" d="M394.251,283.634a5.269,5.269,0,0,1,1.568-.729c.378.03,6.395,3.24,6.395,3.24s6.887,16.152,6.731,18.045S382.7,321.1,382.7,321.1l4.875-16.861S393.681,287.975,395.4,284Z" transform="translate(-265.309 -245.552)" fill="#545a6c" fill-rule="evenodd"/>
        </g>
        <g id="Group_8" data-name="Group 8" transform="translate(81.928 44.75)">
          <path id="Path_29" data-name="Path 29" d="M387.473,251c.181.041.357.088.532.142l.005,0h0a7.394,7.394,0,1,1-6.279.92c-.386,2.156-.285,4.876,2.464,5.4l.306-4.251A2.541,2.541,0,0,1,387.473,251Z" transform="translate(-327.261 -246.156)" fill="#e8685b" fill-rule="evenodd"/>
          <path id="Path_30" data-name="Path 30" d="M436.714,246.156c-.185.009-.367.022-.548.043h-.006a7.394,7.394,0,1,0,6.01,2.041c-.011,2.19-.6,4.848-3.4,4.864l.467-4.236A2.54,2.54,0,0,0,436.714,246.156Z" transform="translate(-429.628 -246.156)" fill="#e8685b" fill-rule="evenodd"/>
        </g>
        <path id="Path_31" data-name="Path 31" d="M414.1,211.81h0a25.381,25.381,0,0,1,22.9,27.5l-2.09,22.923a25.382,25.382,0,0,1-27.5,22.9h0a25.38,25.38,0,0,1-22.9-27.5l2.09-22.923A25.382,25.382,0,0,1,414.1,211.81Z" transform="translate(-295.167 -201.406)" fill="#f4ad85" fill-rule="evenodd"/>
        <path id="Path_32" data-name="Path 32" d="M433.231,228.029a25.056,25.056,0,0,1,1.559,11.281l-2.09,22.922a25.393,25.393,0,0,1-25.1,23.006c14.651-1.127,17.364-18.442,18.483-27.558s-2.3-11.16-3.654-11.612-22.634-3.984-27.341-4.527-7.075,2.068-7.075,2.068l-1.979-2.883,1.9-6.156s-1.624.053-3.539.006a25.209,25.209,0,0,1,.929-4.765,40.13,40.13,0,0,0,8.314-3.752c5.612-3.621,32.411.906,36.756.906A6.808,6.808,0,0,1,433.231,228.029Z" transform="translate(-292.956 -201.406)" fill="#ed9072" fill-rule="evenodd"/>
        <path id="Path_33" data-name="Path 33" d="M382.6,246.874s-.153,1.685-.3,3.249-1.753,3.177-2.953,3.067l.325-3.549a3.546,3.546,0,0,0-3.5-2.959c-8.879-12.309-5.919-30.293,5.525-38.713s34.243-6.947,38.093-5.261,7.325,8.8,7.325,8.8,3.646-2.7,6.631-.852,11.655,22.538,11.2,27.471-10.892,13.839-10.892,13.839a3.544,3.544,0,0,0-3.979,2.276l-.324,3.55c-1.2-.109-2.493-1.986-2.351-3.551l.3-3.249c-.113-.062-.223-.128-.333-.193-3.056-1.986-2.449-8.051-2.449-8.051l2.816-3.94-5.59-7.353-6.431-2.116-14.612.56s-17.23,2.142-15.721,7.156S382.6,246.874,382.6,246.874Z" transform="translate(-289.6 -201.406)" fill="#0e1632" fill-rule="evenodd"/>
        <path id="Path_34" data-name="Path 34" d="M382.838,246.874c-.175,1.931-1.467,10.555-3.715,10.35-6.7-14.12-12.894-28.858-2.908-43.324,1.175,9.309,10.448,14.987,19.734,16.941-4.913,1.07-11.273,3.08-10.331,6.21,1.507,5.016-2.78,9.823-2.78,9.823Zm61.706-13.082a14.634,14.634,0,0,1,.643,4.331c-.347,3.8-13.005,22.162-15.815,26.335-1.463-.133-1.659-11.009-1.434-13.47-.113-.063-.222-.127-.333-.193-3.056-1.986-2.449-8.051-2.449-8.051l2.816-3.94-5.59-7.354-6.135-2.018c3.088-1.246,3.98-2.555,3.98-2.555C432.909,239.708,440.269,239.007,444.544,233.792Z" transform="translate(-289.843 -201.406)" fill="#010518" fill-rule="evenodd"/>
        <path id="Path_35" data-name="Path 35" d="M436.942,247.27s10.6-22.984-10.724-26.914c0,0-5.645-11.144-16.953-8.349s-18.388,2.716-23.46-2.281c0,0-2.909,5.474.623,10.26-10.7,8.306-6.987,18.956-2.607,24.7,1.755-11.912,33.136,1.348,37.239-10.1C421.468,245.529,432.938,242.807,436.942,247.27Z" transform="translate(-292.697 -201.406)" fill="#0e1632" fill-rule="evenodd"/>
        <path id="Path_36" data-name="Path 36" d="M437.022,247.27a33.22,33.22,0,0,0,2.554-10.013c-4.122-.392-9.469-3.352-16.415-10.38,0,0-2.837,4.169-15.935,4.707-7.955.327-18.069-2.617-23.771-8.751-6.816,7.766-3.447,16.748.446,21.857,1.755-11.912,33.135,1.348,37.239-10.1C421.548,245.529,433.018,242.807,437.022,247.27Z" transform="translate(-292.777 -201.406)" fill="#010518" fill-rule="evenodd"/>
      </g>
      <g id="Group_13" data-name="Group 13" transform="translate(0 211.634)">
        <g id="Group_10" data-name="Group 10" transform="translate(6.649)">
          <path id="Path_37" data-name="Path 37" d="M625.481,249.747c4.484-16.812,20.15-7.567,26.854,6.826s22.067,70.535,35.348,85.072c5.148,5.634,3.573,6.108-1.159,3.364C662.919,331.325,619.309,272.888,625.481,249.747Z" transform="translate(-624.89 -240.722)" fill="#05304b" fill-rule="evenodd"/>
          <path id="Path_38" data-name="Path 38" d="M681.663,346.022c.162.755-.549.791-1.895.234-35.786-30.266-54.79-97.925-54.851-98.142a.7.7,0,1,1,1.348-.384C626.326,247.948,645.59,316.53,681.663,346.022Z" transform="translate(-615.698 -240.722)" fill="#0076bd" fill-rule="evenodd"/>
        </g>
        <g id="Group_11" data-name="Group 11" transform="translate(43.843 12.738)">
          <path id="Path_39" data-name="Path 39" d="M625.938,258.712c7.82-12.257,17.962-.936,19.664,12.223s-.248,61.758,6.657,76.693c2.676,5.789,1.3,5.769-1.773,2.387C635.142,333.15,615.174,275.584,625.938,258.712Z" transform="translate(-622.884 -253.46)" fill="#a77508" fill-rule="evenodd"/>
          <path id="Path_40" data-name="Path 40" d="M643.4,351.916c-.061.644-.636.491-1.567-.293-20.856-33.15-18.895-91.843-18.889-92.031a.585.585,0,1,1,1.17.034C624.106,259.815,622.118,319.31,643.4,351.916Z" transform="translate(-612.603 -253.46)" fill="#05304b" fill-rule="evenodd"/>
        </g>
        <g id="Group_12" data-name="Group 12" transform="translate(0 59.635)">
          <path id="Path_41" data-name="Path 41" d="M630.686,300.424c-13.515,1.409-8.294,14.621,1.991,21.548s51.719,25.621,61.313,37.637c3.719,4.659,4.276,3.5,2.737-.484C689.049,339.249,649.288,298.484,630.686,300.424Z" transform="translate(-622.557 -300.357)" fill="#a77508" fill-rule="evenodd"/>
          <path id="Path_42" data-name="Path 42" d="M691.941,362.59c.563.217.676-.327.411-1.433-18.984-31.3-68.858-54.2-69.017-54.277a.547.547,0,0,0-.461.993C623.034,307.947,673.589,331.168,691.941,362.59Z" transform="translate(-617.518 -300.357)" fill="#05304b" fill-rule="evenodd"/>
        </g>
      </g>
      <g id="Group_14" data-name="Group 14" transform="translate(71.807 16.363)">
        <path id="Path_43" data-name="Path 43" d="M535.733,283.536l3.356,29.487s-5.072,69.057-7.567,98.279H493.863l-.827-117.531Z" transform="translate(-406.404 -35.907)" fill="#0e1632" fill-rule="evenodd"/>
        <path id="Path_44" data-name="Path 44" d="M568.887,309.111l1.658,10.422-3.3,91.769h-45.91c-.766-6.352-1.457-11.783-2.017-15.7-3.448-24.137-4.628-57.683-4.613-65.623s9.211-19.721,12.372-20.584S568.887,309.111,568.887,309.111Z" transform="translate(-459.529 -35.907)" fill="#0e1632" fill-rule="evenodd"/>
        <path id="Path_45" data-name="Path 45" d="M467.307,167.424s1.568-2.918,2.806-2.371,42.807,61.715,44.216,66.978.829,14.592-7.217,27.54-25.26,44.727-25.867,45.412-10.015-5.691-11.018-7.473c0,0-.412-.586.191-1.777s21.068-49.666,22.364-53.146-35.165-46.634-36.9-50.085S447.436,170.944,467.307,167.424Z" transform="translate(-342.592 -51.67)" fill="#171c3a" fill-rule="evenodd"/>
        <path id="Path_46" data-name="Path 46" d="M516.275,149.9l18.1,12.931S547.293,213.4,547.343,215.7s4.995,30.182,4.995,30.182-18.1,7.184-20.689.287-31.61-56.321-33.046-64.08,2.012-26.149,3.736-28.16S516.275,149.9,516.275,149.9Z" transform="translate(-424.878 -55.965)" fill="#c9c4d1" fill-rule="evenodd"/>
        <path id="Path_47" data-name="Path 47" d="M484.8,158.422s16.395,5.769,17.9,6.631,10.364,33.132,11.082,36.149-4.024,58.331-4.024,63.217,6.178,65.947,6.323,66.953a1.807,1.807,0,0,1-1.868,2.155c-1.437,0-17.529-30.315-18.822-33.763s2.893-55.456,2.893-55.456L487.344,169.88Z" transform="translate(-375.18 -49.824)" fill="#171c3a" fill-rule="evenodd"/>
        <path id="Path_48" data-name="Path 48" d="M522.788,166.6s-23.5,23.685-24.361,25.122,23.562,82.327,23.849,86.062-12.07,58.764-12.5,60.2a2.777,2.777,0,0,0,.359,1.437,5.362,5.362,0,0,0,1.939,1.725c.5.359,57.973-8.909,62.572-11.783s14.511-47.556,14.511-53.59-3.476-29.13-3.476-29.13L557.4,198.761S536.975,168.123,522.788,166.6Z" transform="translate(-461.84 -48.419)" fill="#1c2344" fill-rule="evenodd"/>
        <path id="Path_49" data-name="Path 49" d="M572.615,162.876s-27.221,27.409-28.083,28.845,23.562,82.327,23.849,86.062-12.07,58.764-12.5,60.2a2.777,2.777,0,0,0,.359,1.437,5.357,5.357,0,0,0,1.94,1.725c.259.184,15.546-2.171,30.977-4.895-13.386-19.294-12.687-51.26-11.519-53.2,1.357-2.265,8.51-7.152,7.424-7.515s-8.419-.543-8.962-2.353-10.859-59.093-10.859-59.093l-6.886-4.643s-3.079-22.271-.906-25.53,16.5-15.583,16.62-15.683C572.286,167.354,574.27,163.054,572.615,162.876Z" transform="translate(-507.945 -48.698)" fill="#101937" fill-rule="evenodd"/>
        <path id="Path_50" data-name="Path 50" d="M605.819,188.111a40.991,40.991,0,0,0-6.019,6.048c-2.462,3.211-33.125,67.307-33.758,73.315s1.61,16.127,12.658,28.92,35.39,44.628,36.174,45.273,9.986-7.962,10.777-10.088c0,0,.351-.712-.515-1.913s-31.652-50.763-33.672-54.35,30.466-57.149,31.775-61.231S628.192,188.536,605.819,188.111Z" transform="translate(-565.944 -46.961)" fill="#383d5d" fill-rule="evenodd"/>
        <path id="Path_51" data-name="Path 51" d="M521.8,127.4c-.166,8.958,2.157,18.211,1.57,27.182-.12,1.83-1,2.438-3.254,3.9-3.127,4.653,5.425,19.368,11.049,20.244.372.058,9.533-7.126,16.022-8.794,3.33-.855,6.073,3.4,6.323,3.216,1.349-.981-1.552-8.592-.607-11.48-1.141-.306-2.158-2.855-2.968-3.6-5.257-4.849-3.542-16.952.765-21.525C553.916,133.132,521.8,127.4,521.8,127.4Z" transform="translate(-447.601 -59.983)" fill="#ed9072" fill-rule="evenodd"/>
        <path id="Path_52" data-name="Path 52" d="M526.271,162c.715,2.026,18.084,25.209,18.084,25.209s.621.833,1.529-.223,11.609-15.993,11.609-15.993l-23.766-17.709.543-4.074C533.921,148.836,525.536,159.916,526.271,162Z" transform="translate(-457.997 -58.09)" fill="#fff" fill-rule="evenodd"/>
        <path id="Path_53" data-name="Path 53" d="M517.7,154.461c-.006-.012.026-.035.091-.04,8.124-.573,9.355,22.445,7.927,26.957-.01.03-4.937-7.533-8.334-10.542C515.843,169.476,520.651,159.075,517.7,154.461Z" transform="translate(-417.573 -57.885)" fill="#fff" fill-rule="evenodd"/>
        <path id="Path_54" data-name="Path 54" d="M508.757,155.381s30.387,37.67,32.543,40.83,18.677,42.1,20.976,50.431c0,0-25.431-31.753-29.023-34.626s-16.885-13.937-16.885-13.937a1.922,1.922,0,0,1-.179-1.222c.179-.5,3.878-8.871,3.878-8.871S509,189.638,508,189.566s-5.973-24.755-6.116-25.473S508.757,155.381,508.757,155.381Z" transform="translate(-438.436 -55.635)" fill="#383d5d" fill-rule="evenodd"/>
        <path id="Path_55" data-name="Path 55" d="M502.616,154.4s8.038,1.863,9.331,2.581,11.494,17.672,11.781,19.109a.9.9,0,0,1-.43.97,29.8,29.8,0,0,0-2.911,1.832c-.214.215,3.557.646,3.557.646s.43.163.358.827,1.362,63.938,1.362,63.938-12.541-69.965-14.4-74.571-6.847-11.889-6.847-11.889Z" transform="translate(-402.559 -55.808)" fill="#383d5d" fill-rule="evenodd"/>
        <path id="Path_56" data-name="Path 56" d="M512.073,114.362a7.166,7.166,0,1,0,7.126,7.206A7.168,7.168,0,0,0,512.073,114.362Z" transform="translate(-398.345 -66.307)" fill="#e8685b" fill-rule="evenodd"/>
        <path id="Path_57" data-name="Path 57" d="M559.9,114.089a7.166,7.166,0,1,0,7.126,7.205A7.166,7.166,0,0,0,559.9,114.089Z" transform="translate(-493.994 -66.307)" fill="#e8685b" fill-rule="evenodd"/>
        <path id="Path_58" data-name="Path 58" d="M533.83,77.529h0c-13.5-.082-24.605,11.9-24.681,26.619l-.124,24.325c-.074,14.722,10.909,26.833,24.408,26.916h0c13.5.082,24.606-11.9,24.682-26.617l.124-24.327C558.313,89.723,547.33,77.611,533.83,77.529Z" transform="translate(-441.541 -66.307)" fill="#f4ad85" fill-rule="evenodd"/>
        <path id="Path_59" data-name="Path 59" d="M510.1,96.916a28.774,28.774,0,0,0-.955,7.231l-.124,24.326c-.069,13.537,9.212,24.866,21.2,26.666,1.177.123,1.933.2,2.1.215h.011c-13.405-1.327-16.243-18.936-16.243-24.246V117.319c0-13.029,7.211-14.39,12.145-14.39h24.478a4.782,4.782,0,0,1,4.3,2.91l1.22-.927,0-.467a27.875,27.875,0,0,0-7.915-19.792c-12.29,2.4-32.728,6.484-34.137,7.365C515.42,92.5,512.918,94.548,510.1,96.916Z" transform="translate(-441.541 -66.307)" fill="#ed9072" fill-rule="evenodd"/>
        <path id="Path_60" data-name="Path 60" d="M533.793,97.132l-4.409,4.426s-2.113-8.229-19.89-5.691,16.392-16.522,20.262-14.441S537,89.627,533.793,97.132Z" transform="translate(-413.751 -66.307)" fill="#01020e" fill-rule="evenodd"/>
        <path id="Path_61" data-name="Path 61" d="M512.295,97.53s17.5,1.919,26.4-3.735,16.442-8.275,18.725-5.2c2.165,2.914-6.542,10.781-3.039,24.163.19.726.648,13.1.915,13.862.085-4.843,1.636-17.217,3.241-20.314,4.789-9.244,12.28-16.194,2.551-30.057-5.973-8.508-16.117-12.5-20.828-8.19-15.356,14.027-36.5-4.2-36.625,19.046,0,0-11.389,3.835-.8,27.138a3.025,3.025,0,0,1,3.128,3.36l-.094,12.441C514.416,130.042,514.59,107.621,512.295,97.53Z" transform="translate(-438.435 -66.307)" fill="#0e1632" fill-rule="evenodd"/>
      </g>
      <g id="Group_17" data-name="Group 17" transform="translate(50.552 288.684)">
        <g id="Group_15" data-name="Group 15" transform="translate(0)">
          <path id="Rectangle_13" data-name="Rectangle 13" d="M4.352,0H53.861a4.352,4.352,0,0,1,4.352,4.352V89.471a4.352,4.352,0,0,1-4.352,4.352H4.353A4.353,4.353,0,0,1,0,89.47V4.352A4.352,4.352,0,0,1,4.352,0Z" transform="translate(48.789)" fill="#e2e1e7"/>
          <rect id="Rectangle_14" data-name="Rectangle 14" width="47.373" height="93.822" rx="3.662" transform="translate(8.339)" fill="#fff"/>
          <path id="Path_62" data-name="Path 62" d="M591.264,343.859h-51.29c0-9.191-9.908-10.207-9.908-10.207h51.29S591.264,334.668,591.264,343.859Z" transform="translate(-474.354 -308.228)" fill="#fff" fill-rule="evenodd"/>
          <rect id="Rectangle_15" data-name="Rectangle 15" width="58.81" height="24.352" rx="2.865" transform="translate(51.057 78.723)" fill="#bd8200"/>
          <path id="Path_63" data-name="Path 63" d="M638.517,386.95H626.86c-.263,0-3.1.11-4.694,3.581-1.672,3.641-1.493,7.282-6.447,7.282h-2.132c-4.955,0-4.815-3.726-6.447-7.282s-4.432-3.578-4.695-3.581H591.384a2.874,2.874,0,0,0-2.865,2.865v18.621a2.875,2.875,0,0,0,2.865,2.866h47.133a2.873,2.873,0,0,0,2.865-2.866V389.815A2.873,2.873,0,0,0,638.517,386.95Z" transform="translate(-582.925 -308.228)" fill="#f0a500" fill-rule="evenodd"/>
          <path id="Path_64" data-name="Path 64" d="M591.264,376h-51.29c0-9.192-9.908-10.206-9.908-10.206h51.29S591.264,366.811,591.264,376Z" transform="translate(-474.354 -308.228)" fill="#fff" fill-rule="evenodd"/>
          <path id="Path_65" data-name="Path 65" d="M591.264,360.679H637.91c0-9.192,9.066-10.206,9.066-10.206H600.332S591.264,351.487,591.264,360.679Z" transform="translate(-591.264 -308.228)" fill="#acabbb" fill-rule="evenodd"/>
          <path id="Path_66" data-name="Path 66" d="M634.441,318.42H598.688A1.581,1.581,0,0,0,597.111,320h0a1.581,1.581,0,0,0,1.577,1.576h35.753A1.58,1.58,0,0,0,636.016,320h0A1.58,1.58,0,0,0,634.441,318.42Z" transform="translate(-586.151 -308.228)" fill="#e2e1e7" fill-rule="evenodd"/>
          <path id="Path_67" data-name="Path 67" d="M634.441,335.787H598.688a1.581,1.581,0,0,0-1.577,1.576h0a1.582,1.582,0,0,0,1.577,1.577h35.753a1.581,1.581,0,0,0,1.575-1.577h0A1.58,1.58,0,0,0,634.441,335.787Z" transform="translate(-586.151 -308.228)" fill="#e2e1e7" fill-rule="evenodd"/>
          <path id="Path_68" data-name="Path 68" d="M634.441,372.053H598.688a1.581,1.581,0,0,0-1.577,1.576h0a1.581,1.581,0,0,0,1.577,1.576h35.753a1.58,1.58,0,0,0,1.575-1.576h0A1.58,1.58,0,0,0,634.441,372.053Z" transform="translate(-586.151 -308.228)" fill="#e2e1e7" fill-rule="evenodd"/>
          <path id="Path_69" data-name="Path 69" d="M582.09,317.143H547.553a1.58,1.58,0,0,0-1.576,1.576h0a1.58,1.58,0,0,0,1.576,1.576H582.09a1.58,1.58,0,0,0,1.576-1.576h0A1.58,1.58,0,0,0,582.09,317.143Z" transform="translate(-482.667 -308.228)" fill="#acabbb" fill-rule="evenodd"/>
          <rect id="Rectangle_16" data-name="Rectangle 16" width="37.689" height="3.152" rx="1.576" transform="translate(63.31 48.031)" fill="#acabbb"/>
          <path id="Path_70" data-name="Path 70" d="M582.09,381.288H547.553a1.58,1.58,0,0,0-1.576,1.576h0a1.58,1.58,0,0,0,1.576,1.576H582.09a1.58,1.58,0,0,0,1.576-1.576h0A1.58,1.58,0,0,0,582.09,381.288Z" transform="translate(-482.667 -308.228)" fill="#acabbb" fill-rule="evenodd"/>
        </g>
        <g id="Group_16" data-name="Group 16" transform="translate(65.9 40.696)">
          <rect id="Rectangle_17" data-name="Rectangle 17" width="35.229" height="56.778" rx="2.634" transform="translate(29.525)" fill="#e2e1e7"/>
          <path id="Rectangle_18" data-name="Rectangle 18" d="M2.215,0H26.452a2.216,2.216,0,0,1,2.216,2.216V54.563a2.216,2.216,0,0,1-2.216,2.216H2.216A2.216,2.216,0,0,1,0,54.563V2.215A2.215,2.215,0,0,1,2.215,0Z" transform="translate(5.047)" fill="#fff"/>
          <path id="Path_71" data-name="Path 71" d="M547.361,370.486H516.322c0-5.561-6-6.176-6-6.176h31.04S547.361,364.925,547.361,370.486Z" transform="translate(-476.611 -348.924)" fill="#fff" fill-rule="evenodd"/>
          <path id="Rectangle_19" data-name="Rectangle 19" d="M1.734,0H33.857a1.733,1.733,0,0,1,1.733,1.733V13a1.734,1.734,0,0,1-1.734,1.734H1.734A1.734,1.734,0,0,1,0,13V1.734A1.734,1.734,0,0,1,1.734,0Z" transform="translate(30.897 47.642)" fill="#bd8200"/>
          <path id="Path_72" data-name="Path 72" d="M575.956,396.565H568.9a3.325,3.325,0,0,0-2.842,2.167c-1.011,2.2-.9,4.407-3.9,4.407h-1.291c-3,0-2.914-2.255-3.9-4.407a3.235,3.235,0,0,0-2.841-2.167h-6.694A1.738,1.738,0,0,0,545.7,398.3v11.268a1.739,1.739,0,0,0,1.733,1.735h28.524a1.74,1.74,0,0,0,1.735-1.735V398.3A1.74,1.74,0,0,0,575.956,396.565Z" transform="translate(-542.314 -348.924)" fill="#f0a500" fill-rule="evenodd"/>
          <path id="Path_73" data-name="Path 73" d="M547.361,389.94H516.322c0-5.563-6-6.176-6-6.176h31.04S547.361,384.377,547.361,389.94Z" transform="translate(-476.611 -348.924)" fill="#fff" fill-rule="evenodd"/>
          <path id="Path_74" data-name="Path 74" d="M547.361,380.666h28.228c0-5.563,5.487-6.176,5.487-6.176H552.847S547.361,375.1,547.361,380.666Z" transform="translate(-547.361 -348.924)" fill="#acabbb" fill-rule="evenodd"/>
          <path id="Path_75" data-name="Path 75" d="M573.489,355.092H551.853a.956.956,0,0,0-.954.954h0a.956.956,0,0,0,.954.954h21.636a.958.958,0,0,0,.954-.954h0A.958.958,0,0,0,573.489,355.092Z" transform="translate(-544.266 -348.924)" fill="#e2e1e7" fill-rule="evenodd"/>
          <path id="Path_76" data-name="Path 76" d="M573.489,365.6H551.853a.955.955,0,0,0-.954.953h0a.956.956,0,0,0,.954.954h21.636a.957.957,0,0,0,.954-.954h0A.956.956,0,0,0,573.489,365.6Z" transform="translate(-544.266 -348.924)" fill="#e2e1e7" fill-rule="evenodd"/>
          <path id="Path_77" data-name="Path 77" d="M573.489,387.549H551.853a.956.956,0,0,0-.954.954h0a.956.956,0,0,0,.954.954h21.636a.958.958,0,0,0,.954-.954h0A.957.957,0,0,0,573.489,387.549Z" transform="translate(-544.266 -348.924)" fill="#e2e1e7" fill-rule="evenodd"/>
          <path id="Rectangle_20" data-name="Rectangle 20" d="M.953,0h20.9a.954.954,0,0,1,.954.954v0a.954.954,0,0,1-.954.954H.953A.953.953,0,0,1,0,.955v0A.953.953,0,0,1,.953,0Z" transform="translate(38.313 5.395)" fill="#acabbb"/>
          <path id="Rectangle_21" data-name="Rectangle 21" d="M.953,0h20.9a.953.953,0,0,1,.953.953v0a.954.954,0,0,1-.954.954H.953A.953.953,0,0,1,0,.955v0A.953.953,0,0,1,.953,0Z" transform="translate(38.313 29.067)" fill="#acabbb"/>
          <path id="Path_78" data-name="Path 78" d="M541.809,393.138h-20.9a.956.956,0,0,0-.953.954h0a.957.957,0,0,0,.953.954h20.9a.957.957,0,0,0,.954-.954h0A.956.956,0,0,0,541.809,393.138Z" transform="translate(-481.642 -348.924)" fill="#acabbb" fill-rule="evenodd"/>
        </g>
      </g>
      <g id="Group_19" data-name="Group 19" transform="translate(484.419 249.972)">
        <path id="Path_79" data-name="Path 79" d="M223.959,271.772l-40.979.194a.978.978,0,0,0-.978.977l.01,4.287a.978.978,0,0,0,.978.979l40.978-.194a.978.978,0,0,0,.978-.978l-.009-4.287a.978.978,0,0,0-.978-.978Zm-40,2.147,39.023-.189.006,2.331-39.023.189Z" transform="translate(-156.924 -269.516)" fill="#0e1632" fill-rule="evenodd"/>
        <g id="Group_18" data-name="Group 18" transform="translate(60.342)">
          <path id="Path_80" data-name="Path 80" d="M187.988,333,133.847,271.3a.978.978,0,0,0-1.38-.094l-3.223,2.828a.979.979,0,0,0-.093,1.38l54.14,61.694a.978.978,0,0,0,1.38.093l3.223-2.828a.979.979,0,0,0,.094-1.38Zm-54.968-59.67,52.85,60.224-1.752,1.538-52.85-60.224Z" transform="translate(-127.455 -269.516)" fill="#0e1632" fill-rule="evenodd"/>
          <path id="Path_81" data-name="Path 81" d="M184.913,269.56a5.456,5.456,0,1,0,4.725,6.1A5.456,5.456,0,0,0,184.913,269.56Z" transform="translate(-178.769 -269.516)" fill="#383d5d" fill-rule="evenodd"/>
          <path id="Path_82" data-name="Path 82" d="M172.717,333.29l-38.068,72.72a.978.978,0,0,1-1.319.416l-3.8-1.988a.979.979,0,0,1-.416-1.32L167.184,330.4a.977.977,0,0,1,1.318-.416l3.8,1.989a.977.977,0,0,1,.416,1.318Zm-39.348,70.948,37.16-70.986-2.065-1.081L131.3,403.157Z" transform="translate(-112.151 -269.516)" fill="#0e1632" fill-rule="evenodd"/>
          <path id="Path_83" data-name="Path 83" d="M170.9,407.764a5.457,5.457,0,1,1,3.155-7.043A5.457,5.457,0,0,1,170.9,407.764Z" transform="translate(-148.231 -269.516)" fill="#383d5d" fill-rule="evenodd"/>
          <path id="Path_84" data-name="Path 84" d="M133.6,328.031a5.456,5.456,0,1,0,4.726,6.1A5.457,5.457,0,0,0,133.6,328.031Z" transform="translate(-76.144 -269.516)" fill="#383d5d" fill-rule="evenodd"/>
        </g>
        <rect id="Rectangle_22" data-name="Rectangle 22" width="89.837" height="13.784" rx="6.892" transform="translate(47.142 133.626)" fill="#383d5d"/>
        <rect id="Rectangle_23" data-name="Rectangle 23" width="89.838" height="13.784" rx="6.892" transform="translate(20.045 133.626)" fill="#0e1632"/>
        <path id="Path_85" data-name="Path 85" d="M235.2,285.761H215.151a10.6,10.6,0,0,1-10.574-10.573h41.192A10.6,10.6,0,0,1,235.2,285.761Z" transform="translate(-200.322 -269.516)" fill="#fff" fill-rule="evenodd"/>
        <path id="Path_86" data-name="Path 86" d="M227.573,283.651H215.529a6.372,6.372,0,0,1-6.353-6.353h24.75A6.372,6.372,0,0,1,227.573,283.651Z" transform="translate(-193.078 -269.516)" fill="#dff0f2" fill-rule="evenodd"/>
        <path id="Path_87" data-name="Path 87" d="M241.937,270.336H208.41a8.111,8.111,0,0,0-8.088,8.087h49.7A8.11,8.11,0,0,0,241.937,270.336Z" transform="translate(-200.322 -269.516)" fill="#383d5d" fill-rule="evenodd"/>
        <path id="Path_88" data-name="Path 88" d="M223.74,270.336H208.409a8.111,8.111,0,0,0-8.087,8.087h31.5A8.11,8.11,0,0,0,223.74,270.336Z" transform="translate(-182.125 -269.516)" fill="#01020e" fill-rule="evenodd"/>
      </g>
      <g id="Group_20" data-name="Group 20" transform="translate(28.79 55.977)">
        <path id="Path_89" data-name="Path 89" d="M662.593,119.909a.74.74,0,0,0,1.205-.858,31.329,31.329,0,1,0,4.918,25.771.74.74,0,1,0-1.437-.353,29.888,29.888,0,1,1-4.686-24.56Z" transform="translate(-606.944 -105.921)" fill="#0e1632" fill-rule="evenodd"/>
        <path id="Path_90" data-name="Path 90" d="M636.989,123.5c.83.721,3.078,3.032,4.5,7.929-1.23.82-4.621,3.413-3.03,6.168l6.616,11.453c1.609,2.677,5.5,1.057,6.823.407,3.539,3.684,4.413,6.789,4.619,7.858a10.363,10.363,0,0,1-6.072,1.283,6.53,6.53,0,0,1-4.831-2.715l-12.848-22.253a6.569,6.569,0,0,1,.082-5.517,10.353,10.353,0,0,1,4.145-4.613Zm5.855,8.049c-1.765-6.533-5.068-9.075-5.41-9.325a.64.64,0,0,0-.723-.05,11.8,11.8,0,0,0-5.04,5.441,7.873,7.873,0,0,0-.018,6.64l12.855,22.265a7.848,7.848,0,0,0,5.784,3.345,11.779,11.779,0,0,0,7.207-1.633.638.638,0,0,0,.346-.618c0-.012-.339-4.324-5.354-9.369a.637.637,0,0,0-.792-.124c-.013.007-4.246,2.451-5.545.264l-6.6-11.427c-1.23-2.129,2.624-4.477,2.964-4.679A.639.639,0,0,0,642.844,131.552Z" transform="translate(-620.045 -105.921)" fill="#0e1632" fill-rule="evenodd"/>
        <text id="_24" data-name="24" transform="translate(28.013 36.14)" fill="#0e1632" font-size="24" font-family="OpenSans-Extrabold, Open Sans" font-weight="800"><tspan x="0" y="0">24</tspan></text>
      </g>
      <g id="Group_22" data-name="Group 22" transform="translate(222.485 31.377)">
        <path id="Path_91" data-name="Path 91" d="M481.465,85.647h-42.7A6.674,6.674,0,0,0,432.11,92.3V129.5a.742.742,0,0,0,1.267.525l11.34-11.339h36.748a6.673,6.673,0,0,0,6.654-6.654V92.3A6.673,6.673,0,0,0,481.465,85.647Z" transform="translate(-432.11 -81.321)" fill="#bfcce8" fill-rule="evenodd"/>
        <g id="Group_21" data-name="Group 21" transform="translate(4.166)">
          <path id="Path_92" data-name="Path 92" d="M476.42,81.321h-42.7a7.554,7.554,0,0,0-7.533,7.534v37.194a1.621,1.621,0,0,0,1,1.5h0a1.608,1.608,0,0,0,1.765-.35l11.082-11.082H476.42a7.551,7.551,0,0,0,7.533-7.534V88.855a7.552,7.552,0,0,0-7.533-7.534Zm-42.7,1.759h42.7a5.8,5.8,0,0,1,5.775,5.775v19.726a5.8,5.8,0,0,1-5.775,5.775H439.307l-11.363,11.365V88.855a5.792,5.792,0,0,1,5.774-5.775Z" transform="translate(-426.185 -81.321)" fill="#fff" fill-rule="evenodd"/>
          <path id="Path_93" data-name="Path 93" d="M476.775,88.676a.481.481,0,1,0,0-.962H433.364a.481.481,0,1,0,0,.962Z" transform="translate(-426.185 -81.321)" fill="#fff" fill-rule="evenodd"/>
          <path id="Path_94" data-name="Path 94" d="M476.775,93.368a.481.481,0,1,0,0-.962h-4.6a.481.481,0,0,0,0,.962Zm-10.721,0a.481.481,0,1,0,0-.962h-32.69a.481.481,0,1,0,0,.962Z" transform="translate(-426.185 -81.321)" fill="#fff" fill-rule="evenodd"/>
          <path id="Path_95" data-name="Path 95" d="M476.775,98.059a.481.481,0,1,0,0-.962H433.364a.481.481,0,1,0,0,.962Z" transform="translate(-426.185 -81.321)" fill="#fff" fill-rule="evenodd"/>
          <path id="Path_96" data-name="Path 96" d="M476.775,104.419a.481.481,0,1,0,0-.962H445.437a.481.481,0,1,0,0,.962Z" transform="translate(-438.258 -81.321)" fill="#fff" fill-rule="evenodd"/>
          <path id="Path_97" data-name="Path 97" d="M476.775,109.508a.481.481,0,0,0,0-.962H459.431a.481.481,0,1,0,0,.962Z" transform="translate(-452.252 -81.321)" fill="#fff" fill-rule="evenodd"/>
          <path id="Path_98" data-name="Path 98" d="M455.693,109.508a.481.481,0,0,0,0-.962h-6.2a.481.481,0,1,0,0,.962Z" transform="translate(-421.231 -81.321)" fill="#fff" fill-rule="evenodd"/>
        </g>
      </g>
      <path id="Path_99" data-name="Path 99" d="M683.066,416.277a1.1,1.1,0,0,1,2.193,0v2.577h2.576a1.1,1.1,0,1,1,0,2.192h-2.576v2.578a1.1,1.1,0,0,1-2.193,0v-2.578h-2.577a1.1,1.1,0,1,1,0-2.192h2.577Z" transform="translate(-670.797 -19.544)" fill="#bfcce8" fill-rule="evenodd"/>
      <g id="Group_25" data-name="Group 25" transform="translate(463.053 369.67)">
        <g id="Group_23" data-name="Group 23" transform="translate(0 9.72)">
          <path id="Path_100" data-name="Path 100" d="M220.248,398.934h37.131a5.55,5.55,0,0,1,0,11.1H220.248a5.55,5.55,0,0,1,0-11.1Z" transform="translate(-214.698 -398.934)" fill="#bd8200" fill-rule="evenodd"/>
          <path id="Path_101" data-name="Path 101" d="M226.71,399.581H179.226a4.917,4.917,0,0,0-4.9,4.9h0a4.919,4.919,0,0,0,4.9,4.9H226.71Z" transform="translate(-138.104 -398.934)" fill="#fff" fill-rule="evenodd"/>
          <path id="Path_102" data-name="Path 102" d="M226.71,398.934a.646.646,0,1,1,0,1.293H179.226a4.257,4.257,0,0,0,0,8.513H226.71a.646.646,0,1,1,0,1.293H179.226a5.55,5.55,0,0,1,0-11.1Z" transform="translate(-138.104 -398.934)" fill="#a77508" fill-rule="evenodd"/>
          <path id="Path_103" data-name="Path 103" d="M254.947,404.483a5.565,5.565,0,0,1,5.55-5.549H255.67a5.55,5.55,0,0,0,0,11.1H260.5a5.565,5.565,0,0,1-5.55-5.55Z" transform="translate(-247.687 -398.934)" fill="#004a82" fill-rule="evenodd"/>
          <path id="Path_104" data-name="Path 104" d="M247.951,404.483a5.565,5.565,0,0,1,5.551-5.549h-4.828a5.55,5.55,0,0,0,0,11.1H253.5a5.565,5.565,0,0,1-5.551-5.55Z" transform="translate(-233.697 -398.934)" fill="#004a82" fill-rule="evenodd"/>
        </g>
        <g id="Group_24" data-name="Group 24" transform="translate(5.549)">
          <path id="Path_105" data-name="Path 105" d="M216.6,389.214H184.084a4.86,4.86,0,0,0,0,9.72H216.6a4.86,4.86,0,0,0,0-9.72Z" transform="translate(-143.304 -389.214)" fill="#f0a500" fill-rule="evenodd"/>
          <path id="Path_106" data-name="Path 106" d="M210.941,389.78h41.58a4.306,4.306,0,0,1,4.293,4.294h0a4.306,4.306,0,0,1-4.293,4.294h-41.58Z" transform="translate(-210.375 -389.214)" fill="#fff" fill-rule="evenodd"/>
          <path id="Path_107" data-name="Path 107" d="M210.94,389.214a.566.566,0,0,0,0,1.133h41.58a3.728,3.728,0,0,1,0,7.455H210.94a.566.566,0,1,0,0,1.132h41.58a4.86,4.86,0,0,0,0-9.72Z" transform="translate(-210.374 -389.214)" fill="#bd8200" fill-rule="evenodd"/>
          <path id="Path_108" data-name="Path 108" d="M186.215,394.074a4.874,4.874,0,0,0-4.86-4.86h4.228a4.86,4.86,0,0,1,0,9.72h-4.228a4.872,4.872,0,0,0,4.86-4.86Z" transform="translate(-114.418 -389.214)" fill="#bd8200" fill-rule="evenodd"/>
          <path id="Path_109" data-name="Path 109" d="M192.34,394.074a4.874,4.874,0,0,0-4.86-4.86h4.227a4.86,4.86,0,0,1,0,9.72H187.48a4.872,4.872,0,0,0,4.86-4.86Z" transform="translate(-126.667 -389.214)" fill="#bd8200" fill-rule="evenodd"/>
        </g>
      </g>
      <g id="Group_26" data-name="Group 26" transform="translate(220.179 285.611)">
        <path id="Rectangle_24" data-name="Rectangle 24" d="M5.072,0h159.69a5.072,5.072,0,0,1,5.072,5.072v0a5.07,5.07,0,0,1-5.07,5.07H5.07A5.07,5.07,0,0,1,0,5.073v0A5.072,5.072,0,0,1,5.072,0Z" transform="translate(10.864 96.003)" fill="#a8a6b5"/>
        <path id="Path_110" data-name="Path 110" d="M317.7,411.3H477.388a5.448,5.448,0,0,0,4.444-2.392,4.737,4.737,0,0,0-4.157-2.39H317.983a5.451,5.451,0,0,0-4.443,2.39A4.734,4.734,0,0,0,317.7,411.3Z" transform="translate(-302.065 -305.155)" fill="#96929f" fill-rule="evenodd"/>
        <path id="Path_111" data-name="Path 111" d="M359.351,401.158H487.078a6.172,6.172,0,0,0,6.216-6.636l-5.229-82.732a7.19,7.19,0,0,0-7.055-6.635H353.284a6.171,6.171,0,0,0-6.216,6.635l5.229,82.732A7.189,7.189,0,0,0,359.351,401.158Z" transform="translate(-347.055 -305.155)" fill="#96929f" fill-rule="evenodd"/>
        <path id="Path_112" data-name="Path 112" d="M363.118,401.158h123.96a6.172,6.172,0,0,0,6.216-6.636l-5.229-82.732a7.189,7.189,0,0,0-7.054-6.635H357.051a6.172,6.172,0,0,0-6.215,6.635l5.229,82.732A7.188,7.188,0,0,0,363.118,401.158Z" transform="translate(-350.823 -305.155)" fill="#fff" fill-rule="evenodd"/>
        <path id="Path_113" data-name="Path 113" d="M370.38,401.158h12.756l105.743-84.516-.307-4.852a6.985,6.985,0,0,0-1.514-3.888L370.38,401.158Zm102.356-96-115.35,92.2a6.888,6.888,0,0,1-.814-2.828l-.814-12.865,95.718-76.5Z" transform="translate(-351.33 -305.155)" fill="#f0eef0" fill-rule="evenodd"/>
        <path id="Rectangle_25" data-name="Rectangle 25" d="M5.072,0h29.02a5.072,5.072,0,0,1,5.072,5.072v0a5.07,5.07,0,0,1-5.07,5.07H5.07A5.07,5.07,0,0,1,0,5.073v0A5.072,5.072,0,0,1,5.072,0Z" transform="translate(141.534 96.003)" fill="#fff"/>
        <path id="Path_114" data-name="Path 114" d="M346.569,403.693H479.453a2.735,2.735,0,0,0,2.687-2.535h0a2.368,2.368,0,0,0-2.383-2.536H346.873a2.736,2.736,0,0,0-2.688,2.536h0A2.368,2.368,0,0,0,346.569,403.693Z" transform="translate(-333.018 -305.155)" fill="#d2ced6" fill-rule="evenodd"/>
      </g>
      <g id="Group_27" data-name="Group 27" transform="translate(41.516 194.813)">
        <path id="Path_115" data-name="Path 115" d="M285.375,298.647c.98-4.875.735-7.605-.2-12.231l20.94-1.768-29.145-12.773s-6.186-7.59-9.1-15.044,4.991-26.411,7.963-31.115,9.145-4,13.211-1.454c0,0,6.105-9.2,13.393-9.815s30.453,1.52,37.182,18.52-4.1,33.992,6.74,51.48a4.356,4.356,0,0,1-.452,4.075c-1.407,1.865-18.494,21.778-57.436,13.754,0,0-3.1-.72-3.092-3.63Z" transform="translate(64.457 -214.357)" fill="#0e1632" fill-rule="evenodd"/>
        <path id="Path_116" data-name="Path 116" d="M270.888,303.858c-2.145-23.417-3.657-43.77-3.657-43.77l1.987-6.6s17.932,14.493,30.664-.755c-.605,10.461-2.1,20.994,4.542,31.713a4.356,4.356,0,0,1-.452,4.075l-.057.076-.021.025-.049.062-.052.064-.031.04-.092.11-.006.006-.11.131-.032.037-.092.106-.078.09-.06.066-.134.15-.018.018-.164.179-.037.04-.143.151-.1.105-.093.1-.067.069-.14.142-.22.222-.153.148-.115.115c-3.726,3.6-12.4,10.27-27.028,12.584l-.043.006q-1.9.3-3.939.5Z" transform="translate(107.493 -214.357)" fill="#010518" fill-rule="evenodd"/>
        <path id="Path_117" data-name="Path 117" d="M278.475,298.647c1.331-6.625.4-9.288-1.456-18.137l33.323-5.244,14.562,2.822a97.617,97.617,0,0,0,5.079,18.031c-8.866,5.488-24.528,11.079-48.416,6.157,0,0-3.1-.72-3.092-3.63Z" transform="translate(71.402 -214.357)" fill="#010518" fill-rule="evenodd"/>
        <path id="Path_118" data-name="Path 118" d="M293.188,300.086c-9.221,2.892-21.827,6.35-32.7,11.694-.751.37.78,3.263.083,3.65a25.482,25.482,0,0,0-4.769,3.877c-5.077,5.02-15.407,44.309-14.485,48.223,1.484,6.3,14.535,23.6,14.535,23.6,2.592,5.006,5.805,12.3,8.961,20.176h64.822c-4.515-14.677-6.2-24.619-6.315-33.58h0c-3.461-30.463,12.918-37.09,12.918-37.09l-16.964-39.919c-6.6-2.337-19.76-1.458-19.76-1.458C296.038,299.252,296.3,299.108,293.188,300.086Z" transform="translate(102.333 -214.357)" fill="#f0a500" fill-rule="evenodd"/>
        <path id="Path_119" data-name="Path 119" d="M301.734,411.3h9.149c-1.7-4.563-9.636-26.14-11.332-30.745,7.71-1.342,18.324-3.182,20.195-3.627s9.037,3.649,9.037,3.649l-.8-4.657,7.694,7.748L322.526,359.1s-21.466,4.848-26.027,5.679-1.779.2-2.627.131c-2.536-7.135,1.617-9.131,1.124-12.584s-.639-36.943-.639-36.943c-2.774,1.437-4.027,4.561-5.6,9.49-1.032,3.243-6.513,24.558-8.782,37.165-.54,3-.967,5.243-1.237,7.033C283.827,382.042,295.245,395.1,301.734,411.3Z" transform="translate(63.755 -214.357)" fill="#bd8200" fill-rule="evenodd"/>
        <path id="Path_120" data-name="Path 120" d="M305.1,263.287l3.245,9.75s4.909,23.008,6.044,25.992c.395,1.036,1.693,1.352,3.689,1.3-2.872,4.113-8.45,10.388-16.513,11.916-5.149.976-8.749.015-11.194-1.427,1.722-.909,3.368-1.989,3.361-2.876-.07-7.852-1.419-21.672-5.675-24.227C283.18,280.792,305.1,263.287,305.1,263.287Z" transform="translate(72.88 -214.357)" fill="#e8685b" fill-rule="evenodd"/>
        <path id="Path_121" data-name="Path 121" d="M310.763,300.267a20.5,20.5,0,0,0,4.646-.181,35.092,35.092,0,0,1-10.321,9.325c-12.714,8.056-18.836,3.666-20.772,1.6a14.188,14.188,0,0,0,3.1-1.989h0c11.865,5.8,23.347-8.751,23.347-8.751Z" transform="translate(78.765 -214.357)" fill="#fff" fill-rule="evenodd"/>
        <path id="Path_122" data-name="Path 122" d="M326.775,311.531s-5.07,51.026-4.454,55.335S331,392.409,338.063,411.3H325.914c-2.4-4.624-4.234-8.235-4.567-9.105-.217-.562-1.056-2.194-2.211-4.332-2.076-3.844-5.177-9.324-7.514-13.161-7.449-12.228-7.429-9.373-4.851-23.7C309.04,348.4,316,325.073,317.036,321.83,318.605,316.9,325.46,311.172,326.775,311.531Z" transform="translate(33.789 -214.357)" fill="#1c2344" fill-rule="evenodd"/>
        <path id="Path_123" data-name="Path 123" d="M330.85,382.55c1.671,4.668,3.613,9.984,5.627,15.441a40.581,40.581,0,0,0-7.689,1.1c-3.694,1.451-4.08,3.106-4.08,3.106-.216-.562-1.055-2.194-2.21-4.332-2.077-3.844-5.177-9.324-7.514-13.161-2.241-3.679-3.8-5.991-4.827-7.817,1.434,1.258,3.719,3.157,4.832,3.494C316.334,380.789,326.688,382.052,330.85,382.55Z" transform="translate(30.288 -214.357)" fill="#0e1632" fill-rule="evenodd"/>
        <path id="Path_124" data-name="Path 124" d="M249.9,299s-9.3,45.068-10.578,58.169,2.822,22.477,7.431,32.32c1.554,3.318,6.536,11.785,12.672,21.813h28.644l-3.064-70.8,8.214-1.9c-.488-3.556-.887-6.5-1.16-8.565l-16.173-28.594S269.792,296.5,249.9,299Z" transform="translate(148.674 -214.357)" fill="#1c2344" fill-rule="evenodd"/>
        <path id="Path_125" data-name="Path 125" d="M267.315,320.692c4.57,18.353,1.4,25.964,1.4,25.964l-2.448-11.42s-2.315,16.857-4.891,19.006c-1.279,1.068-16.505,3.987-22.211,5.051a47.868,47.868,0,0,0,2.8,18.882c4.1.421,28.733-3.05,29.91,4.91.587,3.97.455-8.8.455-8.8l1.458,37.02H288.07l-3.064-70.8,8.214-1.9-.022-.167-.023-.164-.023-.165-.022-.164h0l-.023-.162-.022-.162-.022-.16-.022-.16-.022-.159-.021-.158-.021-.157h0l-.021-.156-.022-.155-.02-.154h0l-.022-.152-.02-.152h0l-.021-.151h0l-.02-.15h0l-.021-.15h0l-.02-.147h0l-.02-.147h0l-.019-.147h0l-.02-.144h0l-.02-.144h0l-.019-.143h0l-.019-.141h0l-.019-.141h0l-.019-.139h0l-.019-.139h0l-.019-.137h0l-.018-.136h0l-.018-.135h0l-.019-.134h0l-.018-.133h0l-.018-.132h0l-.017-.131h0l-.018-.128h0l-.017-.128h0l-.018-.127h0l-.017-.127h0l-.016-.125h0l-.017-.124h0l-.017-.123h0l-.016-.121h0l-.017-.12h0l-.016-.12h0l-.016-.118h0l-.015-.117h0l-.016-.115h0l-.015-.115h0l-.015-.114h0l-.015-.111h0l-.016-.111h0l-.014-.11h0l-.014-.108h0l-.015-.106h0l-.014-.107h0l-.014-.1h0l-.014-.1h0l-.013-.1h0l-.014-.1h0l-.013-.1h0l-.013-.1h0l-.013-.1L283.3,314.555Z" transform="translate(148.676 -214.357)" fill="#0e1632" fill-rule="evenodd"/>
        <path id="Path_126" data-name="Path 126" d="M264.747,321.443c5.244,14.33,6.671,63.475,2.35,89.859h-23.01c9.411-52.372-10.355-89.833-6.012-103.105C245.027,286.951,261.3,312.025,264.747,321.443Z" transform="translate(174.472 -214.357)" fill="#383d5d" fill-rule="evenodd"/>
        <path id="Path_127" data-name="Path 127" d="M337.245,273l-2.564-1.124a73.956,73.956,0,0,1-7.462-11.434c.61,1.162,4.651,8.228,10.567,3.91,6.432-4.7,6.691,2.741,6.691,2.741s-3.891,4.42-6.151,5.453c-.292.134-.66.288-1.081.454Zm-10.1-12.711,0-.005h0Z" transform="translate(4.463 -214.357)" fill="#010518" fill-rule="evenodd"/>
        <path id="Path_128" data-name="Path 128" d="M330.132,268.728a7.335,7.335,0,1,1-6.54,8.052A7.338,7.338,0,0,1,330.132,268.728Z" transform="translate(14.611 -214.357)" fill="#e8685b" fill-rule="evenodd"/>
        <path id="Path_129" data-name="Path 129" d="M281.261,263.522c.183.008.364.024.544.045h0a7.337,7.337,0,1,1-5.977,1.985c0,2.173.565,4.814,3.341,4.849l-.435-4.207A2.52,2.52,0,0,1,281.261,263.522Z" transform="translate(117.775 -214.357)" fill="#e8685b" fill-rule="evenodd"/>
        <path id="Path_130" data-name="Path 130" d="M304.614,229.419h0a25.2,25.2,0,0,1,27.578,22.4l2.352,22.711a25.2,25.2,0,0,1-22.4,27.577h0a25.2,25.2,0,0,1-27.577-22.4L282.213,257A25.2,25.2,0,0,1,304.614,229.419Z" transform="translate(61.309 -214.357)" fill="#f4ad85" fill-rule="evenodd"/>
        <path id="Path_131" data-name="Path 131" d="M332.6,255.8l1.94,18.728a25.222,25.222,0,0,1-16.014,26.048c14.622-6.057,7.126-31.473,7.126-31.473-2.961-.5-7.631-6.023-10.346-9.235s-4.816-6.452-9.5-6.357-14.585,2.554-14.585,2.554a27.547,27.547,0,0,1-8.051,10.2l-.96-9.27a24.927,24.927,0,0,1,.476-8.065c.606-.356,1.228-.716,1.885-1.086C304.7,236.533,321.774,245.685,332.6,255.8Z" transform="translate(61.31 -214.357)" fill="#ed9072" fill-rule="evenodd"/>
        <path id="Path_132" data-name="Path 132" d="M302.217,249.889l4.064,1.726a11.986,11.986,0,0,1,8.192-1.318s8.921-3.279,13.648-1.452,1.946-4.737,1.08-5.025-9.82-.855-13.727-.1-9.787,1.668-9.787,1.668Z" transform="translate(44.359 -214.357)" fill="#010518" fill-rule="evenodd"/>
        <path id="Path_133" data-name="Path 133" d="M285.337,262.307l-2.408.423s-1.672,7.613,3.054,7.672l-.435-4.207a2.383,2.383,0,0,1,.049-.806Z" transform="translate(110.653 -214.357)" fill="#010518" fill-rule="evenodd"/>
        <path id="Path_134" data-name="Path 134" d="M301.284,250.3c3.672-4.955,9.673-5.968,14.339.991,4.261,6.358,10.592,17.36,21.245,16.462l.053-.2-.025,0-.6-7.1s.9.234,1.986.49a45.818,45.818,0,0,0,.368-12.722C337.416,239.306,325,226.275,311,225.773s-24.128,7.812-26.134,12.554-3.986,15.5-3.986,15.5l2.463,3.523,2.654,7c6.44-6.265,5.779-12.19,8.578-15.175C296.094,247.56,298.361,247.555,301.284,250.3Z" transform="translate(58.166 -214.357)" fill="#0e1632" fill-rule="evenodd"/>
        <path id="Path_135" data-name="Path 135" d="M281.285,253.491c4.225,6.393,10.287,15.06,19.789,14.259l.053-.2-.025,0-.6-7.1s.9.234,1.986.49c.094-.613.183-1.255.264-1.918C292.022,262.146,281.32,253.519,281.285,253.491Z" transform="translate(94.894 -214.357)" fill="#010518" fill-rule="evenodd"/>
        <path id="Path_136" data-name="Path 136" d="M324.248,310.11s-6.537,53.631-6.408,55.372,1.866,10.128,1.866,10.128-3.156-5.291-3.93-9.676-2.838-34.054-2.838-34.054l3.482-1.87-3.225-.194,5.323-16.661a4.706,4.706,0,0,1,1.449-1.72c.838-.485,3.893-2.017,3.942-2.04a2,2,0,0,1,1.2.144S324.471,309.971,324.248,310.11Z" transform="translate(39.094 -214.357)" fill="#484e6a" fill-rule="evenodd"/>
        <path id="Path_137" data-name="Path 137" d="M284.171,299s-9.3,45.068-10.578,58.169a46.488,46.488,0,0,0,.806,14.522c-1.714-13.4,17.145-44.933,17.145-44.933l-4.9-2.323,6.578-2.966s-3.032-16.962-3.225-19.8c-.188-2.759,1.274-3.272,1.356-3.3C289.187,298.47,286.8,298.67,284.171,299Z" transform="translate(112.906 -214.357)" fill="#484e6a" fill-rule="evenodd"/>
        <path id="Path_138" data-name="Path 138" d="M660.29,431.206h-8.653a6.113,6.113,0,0,1-6.272-5.9h0a6.115,6.115,0,0,1,6.272-5.9H674.5a4.853,4.853,0,0,0,4.978-4.683h0a4.854,4.854,0,0,0-4.978-4.686H70.545a4.854,4.854,0,0,0-4.978,4.686h0a4.854,4.854,0,0,0,4.978,4.683H101.9a6.113,6.113,0,0,1,6.271,5.9h0a6.111,6.111,0,0,1-6.271,5.9H94.549c-5.476,0-9.954,4.217-9.954,9.369h0c0,5.153,4.482,9.369,9.954,9.369H660.29c5.47,0,9.955-4.216,9.955-9.369h0c0-5.152-4.48-9.369-9.955-9.369Zm27.659-21.173a4.694,4.694,0,1,0,4.978,4.686A4.84,4.84,0,0,0,687.949,410.033Z" transform="translate(-65.567 -214.357)" fill="#01020e" fill-rule="evenodd"/>
      </g>
      <g id="Group_28" data-name="Group 28" transform="translate(321.539 124.381)">
        <path id="Path_139" data-name="Path 139" d="M344.529,164.479h42.7a7.552,7.552,0,0,1,7.534,7.534v37.195a1.621,1.621,0,0,1-1,1.5h0a1.609,1.609,0,0,1-1.766-.35l-11.081-11.082H344.529a7.556,7.556,0,0,1-7.535-7.534V172.013a7.554,7.554,0,0,1,7.535-7.534Zm42.7,1.758h-42.7a5.8,5.8,0,0,0-5.776,5.776v19.726a5.794,5.794,0,0,0,5.776,5.775h37.112L393,208.878V172.013a5.8,5.8,0,0,0-5.775-5.776Z" transform="translate(-336.994 -164.479)" fill="#1a293d" fill-rule="evenodd"/>
        <path id="Path_140" data-name="Path 140" d="M344.171,171.834a.48.48,0,0,1,0-.961h43.412a.48.48,0,1,1,0,.961Z" transform="translate(-336.992 -164.479)" fill="#1a293d" fill-rule="evenodd"/>
        <path id="Path_141" data-name="Path 141" d="M344.171,176.525a.48.48,0,0,1,0-.961h4.6a.48.48,0,0,1,0,.961Zm10.721,0a.48.48,0,1,1,0-.961h32.691a.48.48,0,1,1,0,.961Z" transform="translate(-336.992 -164.479)" fill="#1a293d" fill-rule="evenodd"/>
        <path id="Path_142" data-name="Path 142" d="M344.171,181.217a.481.481,0,0,1,0-.962h43.412a.481.481,0,0,1,0,.962Z" transform="translate(-336.992 -164.479)" fill="#1a293d" fill-rule="evenodd"/>
        <path id="Path_143" data-name="Path 143" d="M344.171,187.577a.481.481,0,0,1,0-.962h31.34a.481.481,0,0,1,0,.962Z" transform="translate(-324.92 -164.479)" fill="#1a293d" fill-rule="evenodd"/>
        <path id="Path_144" data-name="Path 144" d="M344.172,192.666a.481.481,0,0,1,0-.962h17.346a.481.481,0,0,1,0,.962Z" transform="translate(-310.927 -164.479)" fill="#1a293d" fill-rule="evenodd"/>
        <path id="Path_145" data-name="Path 145" d="M365.254,192.666a.481.481,0,0,1,0-.962h6.2a.481.481,0,1,1,0,.962Z" transform="translate(-341.948 -164.479)" fill="#1a293d" fill-rule="evenodd"/>
      </g>
    </g>
  </g>
</svg>
