<svg xmlns="http://www.w3.org/2000/svg" width="98.939" height="96.121" viewBox="0 0 98.939 96.121">
  <g id="Speech_Bubble" data-name="Speech Bubble" transform="translate(-223.822 -78.788)">
    <g id="Group_442" data-name="Group 442" transform="translate(224.342 79.295)">
      <g id="Group_428" data-name="Group 428">
        <g id="Group_427" data-name="Group 427">
          <g id="Group_426" data-name="Group 426">
            <path id="Path_136" data-name="Path 136" d="M281.25,169.488l-10-17.732a47.071,47.071,0,1,0-40.147,22.589,46.711,46.711,0,0,0,28.841-9.932l-.016.021Z" transform="translate(-183.828 -79.353)" fill="#fff" stroke="#707070" stroke-width="1"/>
            <g id="Group_425" data-name="Group 425">
              <path id="Path_137" data-name="Path 137" d="M281.187,169.39l-21.336-4.925-.188-.043.117-.155.016-.021.174.176a48.171,48.171,0,0,1-9.686,5.869A47.03,47.03,0,0,1,237.372,174a42.073,42.073,0,0,1-7.455.377c-1.283-.073-2.588-.1-3.9-.216l-3.979-.606a47.658,47.658,0,0,1-37.374-37.3,48.565,48.565,0,0,1,.557-21.066,46.817,46.817,0,0,1,10.09-19.475l1.923-2.128c.632-.715,1.386-1.306,2.07-1.962.717-.621,1.364-1.324,2.135-1.873l2.259-1.7a19.85,19.85,0,0,1,2.339-1.556l2.389-1.459,2.5-1.222a21.941,21.941,0,0,1,2.525-1.128,47.765,47.765,0,0,1,21.1-3.263,46.24,46.24,0,0,1,19.37,5.756,48,48,0,0,1,22.352,27.66,51.476,51.476,0,0,1,2.049,15.405,47.351,47.351,0,0,1-2.3,13.3,48.205,48.205,0,0,1-4.719,10.2l0-.122,9.887,17.772c-.426-.745-3.621-6.334-10.1-17.654l-.035-.062.037-.061a48.232,48.232,0,0,0,4.643-10.162,47.247,47.247,0,0,0,2.237-13.22,51.244,51.244,0,0,0-2.077-15.281,47.641,47.641,0,0,0-22.2-27.372A45.839,45.839,0,0,0,234.513,79.9a47.357,47.357,0,0,0-20.883,3.243,21.478,21.478,0,0,0-2.5,1.118l-2.474,1.209L206.3,86.915a19.557,19.557,0,0,0-2.314,1.541l-2.235,1.682c-.763.543-1.4,1.239-2.112,1.853-.678.65-1.424,1.233-2.049,1.942l-1.9,2.106a46.363,46.363,0,0,0-9.989,19.268,48.127,48.127,0,0,0-.565,20.85,47.2,47.2,0,0,0,36.977,37.006l3.944.61c1.306.114,2.6.148,3.873.225a41.959,41.959,0,0,0,7.4-.352,46.833,46.833,0,0,0,12.836-3.633,48.2,48.2,0,0,0,9.657-5.789l.753-.579-.578.754-.016.021-.07-.2Z" transform="translate(-183.765 -79.295)" fill="#263238" stroke="#707070" stroke-width="1"/>
            </g>
          </g>
        </g>
      </g>
      <g id="Group_441" data-name="Group 441" transform="translate(34.57 44.752)">
        <g id="Group_432" data-name="Group 432" transform="translate(0 0.001)">
          <g id="Group_431" data-name="Group 431">
            <g id="Group_430" data-name="Group 430">
              <g id="Group_429" data-name="Group 429">
                <path id="Path_138" data-name="Path 138" d="M220.121,127.456a2.816,2.816,0,1,1-2.816-2.816A2.816,2.816,0,0,1,220.121,127.456Z" transform="translate(-214.488 -124.64)" fill="#263238" stroke="#707070" stroke-width="1"/>
              </g>
            </g>
          </g>
        </g>
        <g id="Group_436" data-name="Group 436" transform="translate(11.271 0.001)">
          <g id="Group_435" data-name="Group 435">
            <g id="Group_434" data-name="Group 434">
              <g id="Group_433" data-name="Group 433">
                <path id="Path_139" data-name="Path 139" d="M236.087,127.456a2.816,2.816,0,1,1-2.816-2.816A2.816,2.816,0,0,1,236.087,127.456Z" transform="translate(-230.454 -124.64)" fill="#263238" stroke="#707070" stroke-width="1"/>
              </g>
            </g>
          </g>
        </g>
        <g id="Group_440" data-name="Group 440" transform="translate(22.891)">
          <g id="Group_439" data-name="Group 439">
            <g id="Group_438" data-name="Group 438">
              <g id="Group_437" data-name="Group 437">
                <path id="Path_140" data-name="Path 140" d="M252.169,126.048a2.816,2.816,0,1,1-3.847-1.031A2.816,2.816,0,0,1,252.169,126.048Z" transform="translate(-246.913 -124.639)" fill="#263238" stroke="#707070" stroke-width="1"/>
              </g>
            </g>
          </g>
        </g>
      </g>
    </g>
  </g>
</svg>
