<svg xmlns="http://www.w3.org/2000/svg" width="204" height="167.065" viewBox="0 0 204 167.065">
  <g id="letter" transform="translate(0 -0.512)">
    <path id="Path_159" data-name="Path 159" d="M97.975,247.1,0,176.436V285.982H204V176.436L106.023,247.1a7.127,7.127,0,0,1-8.048,0Z" transform="translate(0 -118.405)" fill="#eaf9fa"/>
    <path id="Path_160" data-name="Path 160" d="M499.525,176.441V285.985h-8.263V182.4Z" transform="translate(-295.525 -118.409)" fill="#dcf5f8"/>
    <path id="Path_161" data-name="Path 161" d="M102,49.133,0,90.755l97.975,70.661a7.126,7.126,0,0,0,8.048,0L204,90.755Z" transform="translate(0 -32.724)" fill="#d4f2f6"/>
    <path id="Path_162" data-name="Path 162" d="M344,90.757l-6.7,4.831L232.731,52.919,242,49.134Z" transform="translate(-140.002 -32.725)" fill="#a6e7f0"/>
    <path id="Path_163" data-name="Path 163" d="M218.561,78.632V21.422L196.1.512H76.429c-2.615,0-4.736,1.74-4.736,3.886V78.633L141.1,128.691a7.128,7.128,0,0,0,8.05,0Z" transform="translate(-43.128 0)" fill="#faf7f7"/>
    <path id="Path_164" data-name="Path 164" d="M427.416,48.1v57.211l-8.193,5.91V40.558l-.344-.4Z" transform="translate(-251.982 -26.684)" fill="#ede1dd"/>
    <ellipse id="Ellipse_23" data-name="Ellipse 23" cx="40.082" cy="32.891" rx="40.082" ry="32.891" transform="translate(61.917 25.14)" fill="#ade194"/>
    <path id="Path_165" data-name="Path 165" d="M261.636,114.092c0,18.163-17.943,32.89-40.081,32.89a46.135,46.135,0,0,1-22.814-5.846,47.559,47.559,0,0,0,15.673,2.609c22.134,0,40.081-14.724,40.081-32.89,0-11.214-6.837-21.118-17.283-27.051,14.358,5,24.424,16.68,24.424,30.288Z" transform="translate(-119.555 -56.059)" fill="#97da7b"/>
    <g id="Group_483" data-name="Group 483" transform="translate(79.016 42.878)">
      <path id="Path_166" data-name="Path 166" d="M215.706,160.4a7.337,7.337,0,0,1-4.534-1.5l-10.867-8.618a4.706,4.706,0,0,1-.157-7.571,7.57,7.57,0,0,1,9.227-.129l6.066,4.811,17.521-15.572a7.566,7.566,0,0,1,9.22-.3,4.71,4.71,0,0,1,.367,7.566l-22.05,19.6a7.218,7.218,0,0,1-4.608,1.72Z" transform="translate(-198.315 -130.091)" fill="#fee45a"/>
    </g>
    <g id="Group_484" data-name="Group 484" transform="translate(89.545 43.42)">
      <path id="Path_167" data-name="Path 167" d="M258.448,140.191l-22.052,19.6a7.231,7.231,0,0,1-4.609,1.721H231.6a7.347,7.347,0,0,1-4.535-1.5l-2.327-1.846a8.239,8.239,0,0,0,1.323.108c.065,0,.135,0,.2,0a7.685,7.685,0,0,0,4.908-1.832l23.5-20.882a5.193,5.193,0,0,0,1.844-3.805,6.7,6.7,0,0,1,1.565.877A4.711,4.711,0,0,1,258.448,140.191Z" transform="translate(-224.741 -131.747)" fill="#fed402"/>
    </g>
    <path id="Path_168" data-name="Path 168" d="M383.925.512V18.06c0,1.857,1.834,3.362,4.1,3.362h18.366Z" transform="translate(-230.955 0)" fill="#e1d3ce"/>
    <path id="Path_169" data-name="Path 169" d="M98.661,347.765,0,400.745H204l-98.66-52.98A7.232,7.232,0,0,0,98.661,347.765Z" transform="translate(0 -233.168)" fill="#d4f2f6"/>
    <path id="Path_170" data-name="Path 170" d="M347.509,400.747H333.63l-94.795-50.9c-.09-.047-.18-.094-.275-.138l3.609-1.936a7.232,7.232,0,0,1,6.677,0Z" transform="translate(-143.509 -233.17)" fill="#a6e7f0"/>
  </g>
</svg>
